<svg width="138" height="138" viewBox="0 0 138 138" fill="none" xmlns="http://www.w3.org/2000/svg">
<path opacity="0.2" fill-rule="evenodd" clip-rule="evenodd" d="M103.971 101.859C122.334 82.3294 121.388 51.6116 101.859 33.2488C82.3293 14.8861 51.6115 15.8319 33.2487 35.3614C14.886 54.8909 15.8318 85.6086 35.3613 103.971C54.8908 122.334 85.6085 121.388 103.971 101.859Z" fill="#40F067"/>
<path fill-rule="evenodd" clip-rule="evenodd" d="M76.5289 58.9197C79.0488 56.9211 81.5677 55.9454 84.0859 55.9925C86.6592 56.0619 89.1172 57.0955 90.9723 58.8883C93.8138 61.5601 95.2308 64.6957 94.8817 68.2089C94.5325 71.7221 92.7756 75.6111 89.1596 79.4569L74.9381 94.582L65.612 85.8131L71.8842 79.1424L75.9644 82.9788L83.3683 75.1045C85.0618 73.3034 85.8484 71.4857 85.9533 69.8849C86.0583 68.2841 85.3005 66.7191 83.9132 65.4148C82.526 64.1104 81.1567 63.6863 79.5883 63.9001C78.02 64.114 76.6155 65.3508 74.9165 67.1577L53.3293 90.1165L48.0834 85.184L55.9918 76.7731L42.2942 63.8938L56.0684 49.2443C59.7145 45.3666 62.9103 42.9781 66.2378 42.5167C69.5654 42.0553 72.3852 42.969 75.2588 45.6709C76.9967 47.2857 78.1109 49.4598 78.4046 51.8091C78.7224 54.1516 78.059 56.5333 76.4794 58.8731L76.5289 58.9197ZM55.9812 76.7612L66.14 65.957C71.3618 60.4034 72.5513 56.2943 69.7447 53.6555C66.9382 51.0166 62.9101 52.4566 57.6883 58.0102L47.5295 68.8144L55.9812 76.7612Z" fill="#6BC57D"/>
</svg>
