<svg width="52" height="52" viewBox="0 0 52 52" fill="none" xmlns="http://www.w3.org/2000/svg">
<circle cx="26" cy="26" r="22" fill="white"/>
<path d="M26 0C11.6406 0 0 11.6406 0 26C0 40.3594 11.6406 52 26 52C40.3594 52 52 40.3594 52 26C52 11.6406 40.3594 0 26 0ZM16.6562 10.3276C17.1919 10.296 17.6761 10.6162 18.0432 11.1846L21.5979 17.9257C21.9722 18.7245 21.7595 19.5799 21.2012 20.1506L19.573 21.7788C19.4725 21.9165 19.4064 22.0716 19.4048 22.2421C20.0292 24.6591 21.9232 26.8885 23.5943 28.4216C25.2653 29.9547 27.0614 32.0304 29.3928 32.5222C29.681 32.6026 30.034 32.6314 30.2403 32.4397L32.1318 30.5132C32.7848 30.0183 33.7294 29.7784 34.4265 30.1831H34.4582L40.8725 33.9695C41.814 34.5597 41.9116 35.7004 41.2375 36.3943L36.8196 40.7774C36.1672 41.4464 35.3004 41.6714 34.4583 41.6724C30.7339 41.5608 27.2148 39.7328 24.3243 37.8543C19.5797 34.4026 15.2276 30.1216 12.4954 24.9495C11.4475 22.7806 10.2165 20.0134 10.334 17.5926C10.3445 16.6819 10.5909 15.7897 11.2322 15.2027L15.6502 10.7848C15.9943 10.4919 16.3348 10.3466 16.6562 10.3276V10.3276Z" fill="url(#paint0_linear_366_423)"/>
<path d="M26 0C11.6406 0 0 11.6406 0 26C0 40.3594 11.6406 52 26 52C40.3594 52 52 40.3594 52 26C52 11.6406 40.3594 0 26 0ZM16.6562 10.3276C17.1919 10.296 17.6761 10.6162 18.0432 11.1846L21.5979 17.9257C21.9722 18.7245 21.7595 19.5799 21.2012 20.1506L19.573 21.7788C19.4725 21.9165 19.4064 22.0716 19.4048 22.2421C20.0292 24.6591 21.9232 26.8885 23.5943 28.4216C25.2653 29.9547 27.0614 32.0304 29.3928 32.5222C29.681 32.6026 30.034 32.6314 30.2403 32.4397L32.1318 30.5132C32.7848 30.0183 33.7294 29.7784 34.4265 30.1831H34.4582L40.8725 33.9695C41.814 34.5597 41.9116 35.7004 41.2375 36.3943L36.8196 40.7774C36.1672 41.4464 35.3004 41.6714 34.4583 41.6724C30.7339 41.5608 27.2148 39.7328 24.3243 37.8543C19.5797 34.4026 15.2276 30.1216 12.4954 24.9495C11.4475 22.7806 10.2165 20.0134 10.334 17.5926C10.3445 16.6819 10.5909 15.7897 11.2322 15.2027L15.6502 10.7848C15.9943 10.4919 16.3348 10.3466 16.6562 10.3276V10.3276Z" fill="black" fill-opacity="0.2"/>
<defs>
<linearGradient id="paint0_linear_366_423" x1="2.54023" y1="15.2414" x2="50.2069" y2="34.5172" gradientUnits="userSpaceOnUse">
<stop stop-color="#53F4AE"/>
<stop offset="1" stop-color="#53F4AE"/>
</linearGradient>
</defs>
</svg>
