<svg width="164" height="164" viewBox="0 0 164 164" fill="none" xmlns="http://www.w3.org/2000/svg">
<rect x="1" y="1" width="162" height="162" rx="81" fill="#FB4B4B" fill-opacity="0.1" stroke="#FB4B4B" stroke-width="2"/>
<rect x="32" y="32" width="100" height="100" rx="50" fill="#FB4B4B"/>
<path d="M71.0912 67.0004C70.7423 67.0004 70.393 67.1333 70.1271 67.3999L67.3999 70.1271C66.8667 70.6602 66.8667 71.5235 67.3999 72.0553L77.3446 82L67.3999 91.9447C66.8667 92.4779 66.8667 93.3411 67.3999 93.8729L70.1271 96.6001C70.6602 97.1333 71.5235 97.1333 72.0553 96.6001L82 86.6554L91.9447 96.6001C92.4765 97.1333 93.3411 97.1333 93.8729 96.6001L96.6001 93.8729C97.1333 93.3398 97.1333 92.4765 96.6001 91.9447L86.6554 82L96.6001 72.0553C97.1333 71.5235 97.1333 70.6589 96.6001 70.1271L93.8729 67.3999C93.3398 66.8667 92.4765 66.8667 91.9447 67.3999L82 77.3446L72.0553 67.3999C71.7887 67.1333 71.4401 67.0004 71.0912 67.0004Z" fill="white"/>
</svg>
