<svg width="22" height="22" viewBox="0 0 22 22" fill="none" xmlns="http://www.w3.org/2000/svg">
<path d="M10.0835 16.5002H11.9168V14.6668H10.0835V16.5002ZM11.0002 1.8335C5.94016 1.8335 1.8335 5.94016 1.8335 11.0002C1.8335 16.0602 5.94016 20.1668 11.0002 20.1668C16.0602 20.1668 20.1668 16.0602 20.1668 11.0002C20.1668 5.94016 16.0602 1.8335 11.0002 1.8335ZM11.0002 18.3335C6.95766 18.3335 3.66683 15.0427 3.66683 11.0002C3.66683 6.95766 6.95766 3.66683 11.0002 3.66683C15.0427 3.66683 18.3335 6.95766 18.3335 11.0002C18.3335 15.0427 15.0427 18.3335 11.0002 18.3335ZM11.0002 5.50016C8.97433 5.50016 7.3335 7.141 7.3335 9.16683H9.16683C9.16683 8.1585 9.99183 7.3335 11.0002 7.3335C12.0085 7.3335 12.8335 8.1585 12.8335 9.16683C12.8335 11.0002 10.0835 10.771 10.0835 13.7502H11.9168C11.9168 11.6877 14.6668 11.4585 14.6668 9.16683C14.6668 7.141 13.026 5.50016 11.0002 5.50016Z" fill="black"/>
</svg>
