<svg width="60" height="60" viewBox="0 0 60 60" fill="none" xmlns="http://www.w3.org/2000/svg">
<rect width="60" height="60" rx="5" fill="#42A8FA"/>
<path d="M20.125 27.625H23.875V31.375H20.125V27.625ZM20.125 35.125H23.875V38.875H20.125V35.125ZM27.625 27.625H31.375V31.375H27.625V27.625ZM27.625 35.125H31.375V38.875H27.625V35.125ZM35.125 27.625H38.875V31.375H35.125V27.625ZM35.125 35.125H38.875V38.875H35.125V35.125Z" fill="white"/>
<path d="M16.375 48.25H42.625C44.6931 48.25 46.375 46.5681 46.375 44.5V18.25C46.375 16.1819 44.6931 14.5 42.625 14.5H38.875V10.75H35.125V14.5H23.875V10.75H20.125V14.5H16.375C14.3069 14.5 12.625 16.1819 12.625 18.25V44.5C12.625 46.5681 14.3069 48.25 16.375 48.25ZM42.625 22L42.6269 44.5H16.375V22H42.625Z" fill="white"/>
</svg>
