<svg width="60" height="60" viewBox="0 0 60 60" fill="none" xmlns="http://www.w3.org/2000/svg">
<rect width="60" height="60" rx="5" fill="#42A8FA"/>
<path d="M48.25 12.5H10.75C8.67969 12.5 7 14.1797 7 16.25V43.75C7 45.8203 8.67969 47.5 10.75 47.5H48.25C50.3203 47.5 52 45.8203 52 43.75V16.25C52 14.1797 50.3203 12.5 48.25 12.5ZM48.25 43.75H30.6875C30.7578 43.3984 30.75 44.0312 30.75 42C30.75 39.5156 28.3984 37.5 25.5 37.5C24.6562 37.5 24.0391 38.125 22 38.125C19.8984 38.125 19.3906 37.5 18.5 37.5C15.6016 37.5 13.25 39.5156 13.25 42C13.25 44.0312 13.2344 43.3984 13.3125 43.75H10.75V21.25H48.25V43.75ZM35.125 37.5H43.875C44.2188 37.5 44.5 37.2188 44.5 36.875V35.625C44.5 35.2812 44.2188 35 43.875 35H35.125C34.7812 35 34.5 35.2812 34.5 35.625V36.875C34.5 37.2188 34.7812 37.5 35.125 37.5ZM35.125 32.5H43.875C44.2188 32.5 44.5 32.2188 44.5 31.875V30.625C44.5 30.2812 44.2188 30 43.875 30H35.125C34.7812 30 34.5 30.2812 34.5 30.625V31.875C34.5 32.2188 34.7812 32.5 35.125 32.5ZM35.125 27.5H43.875C44.2188 27.5 44.5 27.2188 44.5 26.875V25.625C44.5 25.2812 44.2188 25 43.875 25H35.125C34.7812 25 34.5 25.2812 34.5 25.625V26.875C34.5 27.2188 34.7812 27.5 35.125 27.5ZM22 35C24.7578 35 27 32.7578 27 30C27 27.2422 24.7578 25 22 25C19.2422 25 17 27.2422 17 30C17 32.7578 19.2422 35 22 35Z" fill="white"/>
</svg>
