<svg width="60" height="60" viewBox="0 0 60 60" fill="none" xmlns="http://www.w3.org/2000/svg">
<rect width="60" height="60" rx="5" fill="#34BE82"/>
<path d="M38.875 40.75C39.3723 40.75 39.8492 40.5525 40.2008 40.2008C40.5525 39.8492 40.75 39.3723 40.75 38.875V20.125C40.75 19.6277 40.5525 19.1508 40.2008 18.7992C39.8492 18.4476 39.3723 18.25 38.875 18.25C38.3777 18.25 37.9008 18.4476 37.5492 18.7992C37.1975 19.1508 37 19.6277 37 20.125V38.875C37 39.3723 37.1975 39.8492 37.5492 40.2008C37.9008 40.5525 38.3777 40.75 38.875 40.75ZM40.75 16.375H42.625V18.25C42.625 18.7473 42.8226 19.2242 43.1742 19.5758C43.5258 19.9275 44.0027 20.125 44.5 20.125C44.9973 20.125 45.4742 19.9275 45.8258 19.5758C46.1775 19.2242 46.375 18.7473 46.375 18.25V16.375H48.25C48.7473 16.375 49.2242 16.1775 49.5758 15.8258C49.9275 15.4742 50.125 14.9973 50.125 14.5C50.125 14.0027 49.9275 13.5258 49.5758 13.1742C49.2242 12.8226 48.7473 12.625 48.25 12.625H46.375V10.75C46.375 10.2527 46.1775 9.77582 45.8258 9.42419C45.4742 9.07256 44.9973 8.87501 44.5 8.87501C44.0027 8.87501 43.5258 9.07256 43.1742 9.42419C42.8226 9.77582 42.625 10.2527 42.625 10.75V12.625H40.75C40.2527 12.625 39.7758 12.8226 39.4242 13.1742C39.0726 13.5258 38.875 14.0027 38.875 14.5C38.875 14.9973 39.0726 15.4742 39.4242 15.8258C39.7758 16.1775 40.2527 16.375 40.75 16.375ZM47.5 23.875C47.2587 23.9242 47.0294 24.0205 46.8253 24.1583C46.6212 24.2961 46.4462 24.4728 46.3104 24.6783C46.1746 24.8837 46.0806 25.1139 46.0338 25.3557C45.9869 25.5975 45.9882 25.8462 46.0375 26.0875C46.7696 29.6429 46.3357 33.3396 44.8002 36.6288C43.2648 39.918 40.7096 42.6245 37.514 44.3464C34.3184 46.0683 30.6528 46.7139 27.0612 46.1873C23.4696 45.6607 20.1436 43.99 17.5768 41.4232C15.01 38.8564 13.3394 35.5304 12.8128 31.9388C12.2862 28.3472 12.9317 24.6816 14.6536 21.486C16.3755 18.2904 19.082 15.7353 22.3712 14.1998C25.6604 12.6643 29.3571 12.2304 32.9125 12.9625C33.4098 13.062 33.9262 12.9598 34.3482 12.6785C34.7701 12.3972 35.0631 11.9598 35.1625 11.4625C35.262 10.9652 35.1598 10.4488 34.8785 10.0269C34.5972 9.60489 34.1598 9.31197 33.6625 9.21251C32.2903 8.95686 30.8954 8.84376 29.5 8.87501C25.4208 8.87501 21.4331 10.0846 18.0414 12.351C14.6496 14.6173 12.0061 17.8384 10.445 21.6072C8.88394 25.3759 8.47549 29.5229 9.27131 33.5237C10.0671 37.5246 12.0315 41.1996 14.9159 44.0841C17.8004 46.9685 21.4754 48.9329 25.4763 49.7287C29.4771 50.5245 33.6241 50.1161 37.3929 48.555C41.1616 46.994 44.3828 44.3504 46.6491 40.9586C48.9154 37.5669 50.125 33.5793 50.125 29.5C50.129 28.1145 49.9908 26.7323 49.7125 25.375C49.6676 25.1303 49.5744 24.897 49.4385 24.6887C49.3025 24.4803 49.1264 24.3011 48.9205 24.1615C48.7146 24.0219 48.4829 23.9247 48.239 23.8755C47.9952 23.8263 47.7439 23.8261 47.5 23.875ZM25.75 31.375H27.625C29.1169 31.375 30.5476 30.7824 31.6025 29.7275C32.6574 28.6726 33.25 27.2419 33.25 25.75V23.875C33.25 22.3832 32.6574 20.9524 31.6025 19.8975C30.5476 18.8426 29.1169 18.25 27.625 18.25H25.75C24.2582 18.25 22.8274 18.8426 21.7725 19.8975C20.7176 20.9524 20.125 22.3832 20.125 23.875C20.125 24.3723 20.3226 24.8492 20.6742 25.2008C21.0258 25.5525 21.5027 25.75 22 25.75C22.4973 25.75 22.9742 25.5525 23.3258 25.2008C23.6775 24.8492 23.875 24.3723 23.875 23.875C23.875 23.3777 24.0726 22.9008 24.4242 22.5492C24.7758 22.1976 25.2527 22 25.75 22H27.625C28.1223 22 28.5992 22.1976 28.9508 22.5492C29.3025 22.9008 29.5 23.3777 29.5 23.875V25.75C29.5 26.2473 29.3025 26.7242 28.9508 27.0758C28.5992 27.4275 28.1223 27.625 27.625 27.625H25.75C24.2582 27.625 22.8274 28.2176 21.7725 29.2725C20.7176 30.3274 20.125 31.7582 20.125 33.25V38.875C20.125 39.3723 20.3226 39.8492 20.6742 40.2008C21.0258 40.5525 21.5027 40.75 22 40.75H31.375C31.8723 40.75 32.3492 40.5525 32.7008 40.2008C33.0525 39.8492 33.25 39.3723 33.25 38.875C33.25 38.3777 33.0525 37.9008 32.7008 37.5492C32.3492 37.1976 31.8723 37 31.375 37H23.875V33.25C23.875 32.7527 24.0726 32.2758 24.4242 31.9242C24.7758 31.5726 25.2527 31.375 25.75 31.375V31.375Z" fill="white"/>
</svg>
