<svg width="60" height="60" viewBox="0 0 60 60" fill="none" xmlns="http://www.w3.org/2000/svg">
<rect width="60" height="60" rx="5" fill="#42A8FA"/>
<path d="M38.875 40.7502C39.3723 40.7502 39.8492 40.5527 40.2008 40.201C40.5525 39.8494 40.75 39.3725 40.75 38.8752V20.1252C40.75 19.6279 40.5525 19.151 40.2008 18.7994C39.8492 18.4477 39.3723 18.2502 38.875 18.2502C38.3777 18.2502 37.9008 18.4477 37.5492 18.7994C37.1975 19.151 37 19.6279 37 20.1252V38.8752C37 39.3725 37.1975 39.8494 37.5492 40.201C37.9008 40.5527 38.3777 40.7502 38.875 40.7502ZM40.75 16.3752H42.625V18.2502C42.625 18.7475 42.8226 19.2244 43.1742 19.576C43.5258 19.9277 44.0027 20.1252 44.5 20.1252C44.9973 20.1252 45.4742 19.9277 45.8258 19.576C46.1775 19.2244 46.375 18.7475 46.375 18.2502V16.3752H48.25C48.7473 16.3752 49.2242 16.1777 49.5758 15.826C49.9275 15.4744 50.125 14.9975 50.125 14.5002C50.125 14.0029 49.9275 13.526 49.5758 13.1744C49.2242 12.8227 48.7473 12.6252 48.25 12.6252H46.375V10.7502C46.375 10.2529 46.1775 9.776 45.8258 9.42437C45.4742 9.07274 44.9973 8.87519 44.5 8.87519C44.0027 8.87519 43.5258 9.07274 43.1742 9.42437C42.8226 9.776 42.625 10.2529 42.625 10.7502V12.6252H40.75C40.2527 12.6252 39.7758 12.8227 39.4242 13.1744C39.0726 13.526 38.875 14.0029 38.875 14.5002C38.875 14.9975 39.0726 15.4744 39.4242 15.826C39.7758 16.1777 40.2527 16.3752 40.75 16.3752ZM47.5 23.8752C47.2587 23.9244 47.0294 24.0207 46.8253 24.1585C46.6212 24.2963 46.4462 24.473 46.3104 24.6785C46.1746 24.8839 46.0806 25.1141 46.0338 25.3559C45.9869 25.5977 45.9882 25.8464 46.0375 26.0877C46.7696 29.6431 46.3357 33.3398 44.8002 36.629C43.2648 39.9182 40.7096 42.6247 37.514 44.3466C34.3184 46.0685 30.6528 46.714 27.0612 46.1874C23.4696 45.6608 20.1436 43.9902 17.5768 41.4234C15.01 38.8566 13.3394 35.5306 12.8128 31.939C12.2862 28.3474 12.9317 24.6818 14.6536 21.4862C16.3755 18.2906 19.082 15.7354 22.3712 14.2C25.6604 12.6645 29.3571 12.2306 32.9125 12.9627C33.4098 13.0622 33.9262 12.96 34.3482 12.6787C34.7701 12.3974 35.0631 11.96 35.1625 11.4627C35.262 10.9654 35.1598 10.449 34.8785 10.027C34.5972 9.60508 34.1598 9.31215 33.6625 9.21269C32.2903 8.95704 30.8954 8.84394 29.5 8.87519C25.4208 8.87519 21.4331 10.0848 18.0414 12.3511C14.6496 14.6174 12.0061 17.8386 10.445 21.6073C8.88394 25.3761 8.47549 29.5231 9.27131 33.5239C10.0671 37.5248 12.0315 41.1998 14.9159 44.0843C17.8004 46.9687 21.4754 48.9331 25.4763 49.7289C29.4771 50.5247 33.6241 50.1163 37.3929 48.5552C41.1616 46.9942 44.3828 44.3506 46.6491 40.9588C48.9154 37.5671 50.125 33.5794 50.125 29.5002C50.129 28.1147 49.9908 26.7325 49.7125 25.3752C49.6676 25.1305 49.5744 24.8972 49.4385 24.6888C49.3025 24.4805 49.1264 24.3013 48.9205 24.1617C48.7146 24.0221 48.4829 23.9249 48.239 23.8757C47.9952 23.8265 47.7439 23.8263 47.5 23.8752ZM25.75 31.3752H27.625C29.1168 31.3752 30.5476 30.7826 31.6025 29.7277C32.6574 28.6728 33.25 27.242 33.25 25.7502V23.8752C33.25 22.3834 32.6574 20.9526 31.6025 19.8977C30.5476 18.8428 29.1168 18.2502 27.625 18.2502H25.75C24.2582 18.2502 22.8274 18.8428 21.7725 19.8977C20.7176 20.9526 20.125 22.3834 20.125 23.8752C20.125 24.3725 20.3226 24.8494 20.6742 25.201C21.0258 25.5527 21.5027 25.7502 22 25.7502C22.4973 25.7502 22.9742 25.5527 23.3258 25.201C23.6775 24.8494 23.875 24.3725 23.875 23.8752C23.875 23.3779 24.0726 22.901 24.4242 22.5494C24.7758 22.1977 25.2527 22.0002 25.75 22.0002H27.625C28.1223 22.0002 28.5992 22.1977 28.9508 22.5494C29.3025 22.901 29.5 23.3779 29.5 23.8752V25.7502C29.5 26.2475 29.3025 26.7244 28.9508 27.076C28.5992 27.4277 28.1223 27.6252 27.625 27.6252H25.75C24.2582 27.6252 22.8274 28.2178 21.7725 29.2727C20.7176 30.3276 20.125 31.7584 20.125 33.2502V38.8752C20.125 39.3725 20.3226 39.8494 20.6742 40.201C21.0258 40.5527 21.5027 40.7502 22 40.7502H31.375C31.8723 40.7502 32.3492 40.5527 32.7008 40.201C33.0525 39.8494 33.25 39.3725 33.25 38.8752C33.25 38.3779 33.0525 37.901 32.7008 37.5494C32.3492 37.1977 31.8723 37.0002 31.375 37.0002H23.875V33.2502C23.875 32.7529 24.0726 32.276 24.4242 31.9244C24.7758 31.5727 25.2527 31.3752 25.75 31.3752Z" fill="white"/>
</svg>
