<svg width="60" height="60" viewBox="0 0 60 60" fill="none" xmlns="http://www.w3.org/2000/svg">
<rect width="60" height="60" rx="5" fill="#34BE82"/>
<path d="M7 18.25C7 16.7582 7.59263 15.3274 8.64752 14.2725C9.70242 13.2176 11.1332 12.625 12.625 12.625H46.375C47.8668 12.625 49.2976 13.2176 50.3525 14.2725C51.4074 15.3274 52 16.7582 52 18.25V32.3125H7V18.25ZM39.3438 21.0625C38.9708 21.0625 38.6131 21.2107 38.3494 21.4744C38.0857 21.7381 37.9375 22.0958 37.9375 22.4688V25.2812C37.9375 25.6542 38.0857 26.0119 38.3494 26.2756C38.6131 26.5393 38.9708 26.6875 39.3438 26.6875H44.9688C45.3417 26.6875 45.6994 26.5393 45.9631 26.2756C46.2268 26.0119 46.375 25.6542 46.375 25.2812V22.4688C46.375 22.0958 46.2268 21.7381 45.9631 21.4744C45.6994 21.2107 45.3417 21.0625 44.9688 21.0625H39.3438ZM7 37.9375V40.75C7 42.2418 7.59263 43.6726 8.64752 44.7275C9.70242 45.7824 11.1332 46.375 12.625 46.375H46.375C47.8668 46.375 49.2976 45.7824 50.3525 44.7275C51.4074 43.6726 52 42.2418 52 40.75V37.9375H7Z" fill="white"/>
</svg>
