<svg width="17" height="17" viewBox="0 0 17 17" fill="none" xmlns="http://www.w3.org/2000/svg">
<path d="M14.7023 3.82168L12.9343 2.05527C12.8096 1.93 12.6613 1.83061 12.4981 1.7628C12.3348 1.695 12.1598 1.66011 11.983 1.66016C11.6228 1.66016 11.2841 1.80127 11.0301 2.05527L9.12754 3.95781C9.00227 4.08253 8.90288 4.23078 8.83507 4.39403C8.76727 4.55727 8.73238 4.73231 8.73242 4.90908C8.73242 5.26934 8.87354 5.60801 9.12754 5.86201L10.5188 7.25322C10.1931 7.97101 9.74034 8.62399 9.18233 9.18066C8.62571 9.74004 7.97278 10.1944 7.25488 10.5221L5.86367 9.13086C5.73895 9.00559 5.59071 8.9062 5.42746 8.83839C5.26421 8.77058 5.08917 8.7357 4.9124 8.73574C4.55215 8.73574 4.21348 8.87686 3.95947 9.13086L2.05527 11.0317C1.92985 11.1567 1.83037 11.3052 1.76256 11.4687C1.69475 11.6323 1.65995 11.8076 1.66016 11.9847C1.66016 12.3449 1.80127 12.6836 2.05527 12.9376L3.82002 14.7023C4.2251 15.1091 4.78457 15.3398 5.35899 15.3398C5.48018 15.3398 5.59639 15.3299 5.71094 15.31C7.94883 14.9414 10.1685 13.7511 11.9598 11.9614C13.7494 10.1734 14.9381 7.95547 15.3116 5.71094C15.4245 5.02529 15.1971 4.31973 14.7023 3.82168Z" fill="#42A8FA"/>
</svg>
