<svg width="36" height="30" viewBox="0 0 36 30" fill="none" xmlns="http://www.w3.org/2000/svg">
<g clip-path="url(#clip0_345_4254)">
<path d="M31.1226 0.0413818L1.27008 0.041437C0.899841 0.041437 0.578881 0.301809 0.496852 0.668702L0.296041 1.56689C0.18331 2.07111 0.560454 2.5512 1.06928 2.5512L6.44632 2.55115L5.87824 5.06103H34.9655C35.6009 2.52817 33.718 0.0413818 31.1226 0.0413818Z" fill="#3378FF"/>
<path d="M31.1226 0.0413818L1.27008 0.041437C0.899841 0.041437 0.578881 0.301809 0.496852 0.668702L0.296041 1.56689C0.18331 2.07111 0.560454 2.5512 1.06928 2.5512L6.44632 2.55115L5.87824 5.06103H34.9655C35.6009 2.52817 33.718 0.0413818 31.1226 0.0413818Z" fill="url(#paint0_linear_345_4254)"/>
<path d="M31.1226 0.0413818L1.27008 0.041437C0.899841 0.041437 0.578881 0.301809 0.496852 0.668702L0.296041 1.56689C0.18331 2.07111 0.560454 2.5512 1.06928 2.5512L6.44632 2.55115L5.87824 5.06103H34.9655C35.6009 2.52817 33.718 0.0413818 31.1226 0.0413818Z" fill="url(#paint1_linear_345_4254)"/>
<path d="M33.5395 10.0807H4.742L3.25018 16.6719L8.40589 16.6719C8.91473 16.6719 9.29185 17.1519 9.17912 17.6562L8.97834 18.5544C8.89629 18.9212 8.57533 19.1816 8.20508 19.1816H2.68215L0.267456 29.8502H7.10063C8.92046 29.8502 10.5066 28.5912 10.9473 26.7969L12.2028 21.6853H27.2571C29.0227 21.6853 30.5754 20.4989 31.0658 18.7754L33.5395 10.0807Z" fill="#3378FF"/>
<path d="M33.5395 10.0807H4.742L3.25018 16.6719L8.40589 16.6719C8.91473 16.6719 9.29185 17.1519 9.17912 17.6562L8.97834 18.5544C8.89629 18.9212 8.57533 19.1816 8.20508 19.1816H2.68215L0.267456 29.8502H7.10063C8.92046 29.8502 10.5066 28.5912 10.9473 26.7969L12.2028 21.6853H27.2571C29.0227 21.6853 30.5754 20.4989 31.0658 18.7754L33.5395 10.0807Z" fill="url(#paint2_linear_345_4254)"/>
<path d="M33.5395 10.0807H4.742L3.25018 16.6719L8.40589 16.6719C8.91473 16.6719 9.29185 17.1519 9.17912 17.6562L8.97834 18.5544C8.89629 18.9212 8.57533 19.1816 8.20508 19.1816H2.68215L0.267456 29.8502H7.10063C8.92046 29.8502 10.5066 28.5912 10.9473 26.7969L12.2028 21.6853H27.2571C29.0227 21.6853 30.5754 20.4989 31.0658 18.7754L33.5395 10.0807Z" fill="url(#paint3_linear_345_4254)"/>
</g>
<defs>
<linearGradient id="paint0_linear_345_4254" x1="33.82" y1="29.8502" x2="-0.231731" y2="-1.28533" gradientUnits="userSpaceOnUse">
<stop stop-color="#3378FF"/>
<stop offset="1" stop-color="#33C2FF"/>
</linearGradient>
<linearGradient id="paint1_linear_345_4254" x1="39.1064" y1="20.2329" x2="-2.35056" y2="0.562943" gradientUnits="userSpaceOnUse">
<stop stop-color="#3378FF"/>
<stop offset="1" stop-color="#4BC3F6"/>
</linearGradient>
<linearGradient id="paint2_linear_345_4254" x1="33.8199" y1="29.8502" x2="-0.231841" y2="-1.28526" gradientUnits="userSpaceOnUse">
<stop stop-color="#3378FF"/>
<stop offset="1" stop-color="#33C2FF"/>
</linearGradient>
<linearGradient id="paint3_linear_345_4254" x1="39.1063" y1="20.2329" x2="-2.35067" y2="0.563018" gradientUnits="userSpaceOnUse">
<stop stop-color="#3378FF"/>
<stop offset="1" stop-color="#4BC3F6"/>
</linearGradient>
<clipPath id="clip0_345_4254">
<rect width="35.3571" height="30" fill="white"/>
</clipPath>
</defs>
</svg>
