<svg width="48" height="46" viewBox="0 0 48 46" fill="none" xmlns="http://www.w3.org/2000/svg">
<path fill-rule="evenodd" clip-rule="evenodd" d="M38.8915 7.4917C40.5486 7.4917 41.9063 8.75325 41.9063 10.2895V17.3551C43.5132 17.3551 44.736 17.2063 45.6046 18.1153C47.0058 19.5806 46.2286 21.0413 44.6515 22.7745L27.7235 41.3795C26.5555 42.1007 25.28 42.4785 24 42.5083C22.72 42.4785 21.4446 42.1007 20.2766 41.3795L3.34862 22.7745C1.77148 21.0413 0.994332 19.5806 2.39547 18.1153C3.26405 17.2063 4.4869 17.3551 6.09376 17.3551V10.2895C6.09376 8.75325 7.45147 7.4917 9.10862 7.4917H38.8915Z" fill="#FFD500"/>
<path fill-rule="evenodd" clip-rule="evenodd" d="M8.01379 10.9604H10.5258L10.5372 15.0358C11.0012 15.0244 11.2412 14.7611 11.2572 14.2482L11.3052 12.3662C11.3212 11.6724 11.4538 11.2008 11.7075 10.9604H14.0207C13.7989 11.1939 13.6892 11.6793 13.6938 12.4143L13.7052 14.0696C13.7121 15.0702 13.1498 15.6425 12.0161 15.7799C13.1498 15.9196 13.7121 16.4988 13.7052 17.5154L13.6938 19.0517C13.6892 19.7409 13.7852 20.2423 13.9818 20.5559L15.2458 10.9604H18.8709L20.3041 20.6132H17.7441L17.6092 18.88H16.7041L16.5692 20.6132H11.7075C11.4378 20.3728 11.3052 19.9011 11.3052 19.2051V17.3254C11.3052 17.085 11.2344 16.8926 11.0904 16.7484C10.9464 16.6042 10.7612 16.5286 10.5372 16.524L10.5258 20.6132H8.01379V10.9604ZM24.1624 33.1302V35.2229H17.4469L17.4515 33.4714C19.4424 30.211 21.0881 28.2512 21.4652 27.475C21.8424 26.7011 22.0298 26.0967 22.0298 25.664C22.0298 24.0773 20.1852 24.0246 20.1852 25.9662V27.1293H17.9749V26.6828C17.9749 24.6497 18.1692 22.9394 20.7498 22.7264C22.0298 22.6211 22.8847 23.0287 23.5087 23.6308C24.1304 24.2353 24.4412 24.9977 24.4412 25.9204C24.4412 26.6233 24.2675 27.3651 23.9155 28.1481C23.5658 28.9312 22.5304 30.5888 20.8161 33.1302H24.1624ZM26.8778 30.9735L28.2332 25.7578V30.9735H26.8778ZM30.6698 30.9574V22.96H27.2412L24.5967 30.9735V33.0661H28.2332V35.2229H30.6698V33.1005H31.6732V30.9574H30.6698ZM38.5509 10.9604L39.9864 20.6132H37.4241L37.2892 18.88H36.3841L36.2492 20.6132H33.6549L34.9258 10.9604H38.5509ZM37.2207 17.172C37.1018 16.0776 36.9761 14.7221 36.8412 13.1057C36.5944 14.9603 36.4389 16.3157 36.3704 17.172H37.2207ZM33.3304 15.1709H30.8207V13.4949C30.8207 13.005 30.7932 12.7027 30.7407 12.5814C30.6881 12.4601 30.5715 12.4005 30.3909 12.4005C30.1875 12.4005 30.0572 12.4738 30.0024 12.6203C29.9475 12.7669 29.9178 13.0851 29.9178 13.5728V18.0535C29.9178 18.5228 29.9475 18.8273 30.0024 18.9716C30.0572 19.1158 30.1807 19.1868 30.3727 19.1868C30.5555 19.1868 30.6789 19.1158 30.7361 18.9693C30.7932 18.8273 30.8207 18.4908 30.8207 17.9596V16.7438H33.3304V17.1216C33.3304 18.1221 33.2595 18.8319 33.1201 19.2486C32.9784 19.6676 32.6675 20.0339 32.1852 20.3499C31.7029 20.6658 31.1087 20.8215 30.4024 20.8215C29.6687 20.8215 29.0629 20.6887 28.5875 20.4232C28.1121 20.1553 27.7944 19.7889 27.6412 19.315C27.4858 18.8434 27.4081 18.1359 27.4081 17.1903V14.3718C27.4081 13.6758 27.4332 13.1538 27.4789 12.8058C27.5292 12.4578 27.6687 12.1235 27.9064 11.8007C28.1418 11.4801 28.4687 11.226 28.8869 11.0405C29.3052 10.8551 29.7875 10.7635 30.3315 10.7635C31.0675 10.7635 31.6778 10.9054 32.1578 11.1939C32.6378 11.4778 32.9532 11.835 33.1064 12.2609C33.2549 12.689 33.3304 13.3507 33.3304 14.2528V15.1709ZM26.5852 15.1709H24.0732V13.4949C24.0732 13.005 24.0481 12.7027 23.9955 12.5814C23.9429 12.4601 23.8241 12.4005 23.6435 12.4005C23.4401 12.4005 23.3098 12.4738 23.2549 12.6203C23.2001 12.7669 23.1727 13.0851 23.1727 13.5728V18.0535C23.1727 18.5228 23.2001 18.8273 23.2549 18.9716C23.3098 19.1158 23.4355 19.1868 23.6252 19.1868C23.8104 19.1868 23.9315 19.1158 23.9887 18.9693C24.0458 18.8273 24.0732 18.4908 24.0732 17.9596V16.7438H26.5852V17.1216C26.5852 18.1221 26.5144 18.8319 26.3727 19.2486C26.2332 19.6676 25.9201 20.0339 25.4401 20.3499C24.9555 20.6658 24.3635 20.8215 23.6549 20.8215C22.9235 20.8215 22.3178 20.6887 21.8401 20.4232C21.3647 20.1553 21.0492 19.7889 20.8938 19.315C20.7407 18.8434 20.6629 18.1359 20.6629 17.1903V14.3718C20.6629 13.6758 20.6858 13.1538 20.7338 12.8058C20.7818 12.4578 20.9235 12.1235 21.1589 11.8007C21.3967 11.4801 21.7235 11.226 22.1418 11.0405C22.5601 10.8551 23.0401 10.7635 23.5841 10.7635C24.3224 10.7635 24.9304 10.9054 25.4127 11.1939C25.8927 11.4778 26.2058 11.835 26.3589 12.2609C26.5098 12.689 26.5852 13.3507 26.5852 14.2528V15.1709ZM17.5407 17.172C17.4218 16.0776 17.2961 14.7221 17.1612 13.1057C16.9144 14.9603 16.7567 16.3157 16.6904 17.172H17.5407Z" fill="#2B2A29"/>
<path fill-rule="evenodd" clip-rule="evenodd" d="M9.10862 7.49171H38.8915C40.5486 7.49171 41.9063 8.75326 41.9063 10.2896V17.3551C43.5132 17.3551 44.736 17.2063 45.6046 18.1153C47.0058 19.5806 46.2286 21.0413 44.6515 22.7745L27.7235 41.3795C26.5555 42.1007 25.28 42.4785 24 42.5083C22.72 42.4785 21.4446 42.1007 20.2766 41.3795L3.34862 22.7745C1.77148 21.0413 0.994333 19.5806 2.39548 18.1153C3.26405 17.2063 4.4869 17.3551 6.09376 17.3551V10.2896C6.09376 8.75326 7.45147 7.49171 9.10862 7.49171ZM28.24 42.2152C28.3223 42.1648 28.3863 42.1122 28.4503 42.0412L45.3783 23.4362C46.3223 22.3991 47.392 21.0574 47.3143 19.5692C47.2709 18.7358 46.8823 18.0283 46.3155 17.4353C45.3646 16.4393 44.1418 16.3546 42.8892 16.3615V10.2896C42.8892 8.12363 40.9989 6.5072 38.8915 6.5072H9.10862C7.00119 6.5072 5.1109 8.12363 5.1109 10.2896V16.3615C3.85833 16.3546 2.63548 16.4393 1.68462 17.4353C1.11776 18.0283 0.72919 18.7358 0.685761 19.5692C0.608047 21.0574 1.67776 22.3991 2.62176 23.4362L19.5498 42.0412C19.6138 42.1122 19.6778 42.1648 19.76 42.2152C21.0355 43.0028 22.4755 43.4562 23.9749 43.4928H24.0252C25.5246 43.4562 26.9646 43.0028 28.24 42.2152Z" fill="#2B2A29"/>
</svg>
