<svg width="14" height="20" viewBox="0 0 14 20" fill="none" xmlns="http://www.w3.org/2000/svg">
<ellipse cx="7" cy="19" rx="5" ry="1" fill="#040415" fill-opacity="0.2"/>
<path fill-rule="evenodd" clip-rule="evenodd" d="M10.5664 0.994894C8.40203 -0.310537 5.71648 -0.332726 3.53162 0.936771C1.34676 2.20627 -0.00144584 4.57225 1.1636e-06 7.13442C0.0658345 9.01601 0.698587 10.8314 1.81233 12.334C3.14333 14.134 4.78243 15.6746 6.65075 16.8814C6.76932 16.9534 6.9036 16.9941 7.04148 17C7.18475 16.9777 7.32281 16.9289 7.44884 16.856C8.67261 16.0528 9.79983 15.1064 10.8075 14.0361C12.5533 12.19 13.95 9.80194 13.9998 7.26144C14.012 4.70418 12.7095 2.32691 10.5664 0.994894ZM6.9916 9.69185C6.02918 9.69184 5.16168 9.10084 4.79416 8.19478C4.42664 7.28872 4.63159 6.24635 5.31332 5.55435C5.99504 4.86235 7.01907 4.65723 7.90726 5.03477C8.79546 5.41231 9.37261 6.29804 9.36925 7.27838C9.37148 7.92064 9.12143 8.53712 8.67481 8.99048C8.22819 9.44383 7.6221 9.69638 6.9916 9.69185Z" fill="#040415"/>
</svg>
