<svg width="477" height="346" viewBox="0 0 477 346" fill="none" xmlns="http://www.w3.org/2000/svg">
<g clip-path="url(#clip0_46_1708)">
<path d="M182.845 565.644C272.257 565.644 344.739 493.207 344.739 403.852C344.739 314.497 272.257 242.061 182.845 242.061C93.4339 242.061 20.9517 314.497 20.9517 403.852C20.9517 493.207 93.4339 565.644 182.845 565.644Z" fill="#F2F2F2"/>
<path d="M64.2366 346C99.7134 346 128.473 341.401 128.473 335.728C128.473 330.056 99.7134 325.457 64.2366 325.457C28.7597 325.457 0 330.056 0 335.728C0 341.401 28.7597 346 64.2366 346Z" fill="#F2F2F2"/>
<path d="M377.607 335.559C432.5 335.559 477 328.444 477 319.666C477 310.889 432.5 303.773 377.607 303.773C322.714 303.773 278.214 310.889 278.214 319.666C278.214 328.444 322.714 335.559 377.607 335.559Z" fill="#F2F2F2"/>
<path d="M355.524 166.902C355.524 166.902 356.37 169.721 351.575 172.258C346.779 174.795 345.369 184.379 351.01 187.198C356.652 190.017 358.344 193.682 355.524 196.219C352.703 198.756 347.626 205.521 354.395 207.212C361.165 208.904 362.011 212.287 360.037 213.696C358.062 215.105 364.55 211.159 364.55 211.159C364.55 211.159 365.678 217.924 371.601 216.233C377.525 214.542 394.167 182.406 385.705 177.896C377.243 173.386 355.524 166.902 355.524 166.902Z" fill="#2F2E41"/>
<path d="M365.747 194.122C365.747 194.122 368.673 204.356 363.553 205.087C360.375 205.582 357.364 206.836 354.775 208.742L364.284 221.17H381.839L392.811 210.204C392.811 210.204 378.182 199.239 381.108 192.66C384.034 186.081 365.747 194.122 365.747 194.122Z" fill="#FFB9B9"/>
<path opacity="0.1" d="M365.747 194.122C365.747 194.122 368.673 204.356 363.553 205.087C360.375 205.582 357.364 206.836 354.775 208.742L364.284 221.17H381.839L392.811 210.204C392.811 210.204 378.182 199.239 381.108 192.66C384.034 186.081 365.747 194.122 365.747 194.122Z" fill="black"/>
<path d="M370.136 321.319L386.96 327.167L398.663 327.898L397.932 317.664L373.793 310.529L370.136 321.319Z" fill="#FFB9B9"/>
<path d="M391.714 319.125C391.714 319.125 391.714 329.359 393.177 329.359C394.64 329.359 414.39 327.166 420.242 329.359C426.093 331.552 434.871 323.511 430.482 319.125C426.093 314.739 418.935 308.16 414.468 309.622C410.001 311.084 391.714 314.739 391.714 314.739V319.125Z" fill="#575A89"/>
<path d="M337.951 309.623C337.951 309.623 329.173 327.167 335.025 328.629C340.877 330.091 347.46 327.898 348.192 327.167C348.923 326.436 359.164 323.512 360.627 324.974C362.09 326.436 362.09 319.126 362.09 319.126L337.951 309.623Z" fill="#575A89"/>
<path d="M345.266 285.498C345.266 285.498 331.368 304.504 341.609 309.621C351.849 314.738 400.858 314.738 404.515 309.621C408.173 304.504 409.635 288.422 404.515 286.96C399.395 285.498 345.266 285.498 345.266 285.498Z" fill="#2F2E41"/>
<path opacity="0.2" d="M345.266 285.498C345.266 285.498 331.368 304.504 341.609 309.621C351.849 314.738 400.858 314.738 404.515 309.621C408.173 304.504 409.635 288.422 404.515 286.96C399.395 285.498 345.266 285.498 345.266 285.498Z" fill="black"/>
<path d="M371.599 199.24C380.89 199.24 388.423 191.712 388.423 182.427C388.423 173.141 380.89 165.613 371.599 165.613C362.307 165.613 354.775 173.141 354.775 182.427C354.775 191.712 362.307 199.24 371.599 199.24Z" fill="#FFB9B9"/>
<path d="M345.266 208.742L359.895 205.818C359.895 205.818 363.552 217.515 375.256 215.321C386.959 213.128 389.885 205.818 389.885 205.818C389.885 205.818 398.663 209.473 399.394 209.473C400.126 209.473 409.635 213.128 409.635 215.321C409.635 217.515 398.663 239.445 398.663 239.445L400.126 278.919L345.997 277.457L349.654 238.714L345.266 208.742Z" fill="#4FBB48"/>
<path d="M337.22 227.75C337.22 227.75 332.831 266.494 335.757 269.418C338.683 272.342 350.386 280.383 350.386 280.383V271.611L344.534 260.645L350.386 235.06L337.22 227.75Z" fill="#FFB9B9"/>
<path d="M412.927 226.652C412.927 226.652 410.367 266.492 410.367 267.954C410.367 269.416 403.783 274.534 401.589 274.534C399.395 274.534 397.932 270.879 397.932 270.879L403.052 265.03L399.395 235.059L412.927 226.652Z" fill="#FFB9B9"/>
<path d="M405.978 282.575C405.978 282.575 438.894 264.3 439.626 282.575C440.357 300.851 422.802 308.161 422.802 308.161C422.802 308.161 377.45 321.751 375.622 316.784C373.793 311.816 370.136 303.775 373.062 303.044C375.988 302.313 379.645 300.851 381.108 302.313C382.571 303.775 400.858 291.348 400.858 291.348L405.978 282.575Z" fill="#2F2E41"/>
<path opacity="0.2" d="M421.339 280.381C421.339 280.381 414.756 283.305 412.561 285.498C410.367 287.691 400.858 291.346 400.858 291.346" stroke="black" stroke-width="2" stroke-miterlimit="10"/>
<path d="M349.655 210.204L345.266 208.742C345.266 208.742 329.174 225.555 334.294 229.942C339.414 234.328 342.34 235.79 343.803 237.252C345.266 238.714 352.581 239.445 352.581 239.445L349.655 210.204Z" fill="#4FBB48"/>
<path d="M403.052 213.859L409.635 215.321C409.635 215.321 414.756 226.287 416.219 227.749C417.682 229.211 414.024 228.48 411.83 231.404C409.635 234.328 407.441 239.445 403.052 239.445C398.663 239.445 392.812 232.135 392.812 232.135L403.052 213.859Z" fill="#4FBB48"/>
<path d="M346.729 289.155C346.729 289.155 318.933 269.417 309.424 284.038C299.915 298.658 350.386 318.395 357.701 321.319C365.016 324.243 371.599 327.167 371.599 327.167C371.599 327.167 378.182 311.085 378.182 308.161C378.182 305.237 373.062 305.237 371.599 305.237C370.136 305.237 363.553 303.775 362.09 301.582C360.627 299.389 346.729 289.155 346.729 289.155Z" fill="#2F2E41"/>
<path opacity="0.2" d="M331.368 284.037C331.368 284.037 338.683 289.885 345.266 291.347C351.849 292.809 354.044 296.464 354.044 296.464" stroke="black" stroke-width="2" stroke-miterlimit="10"/>
<path d="M341.683 256.551L342.267 287.503C342.286 288.525 342.709 289.498 343.444 290.21C344.178 290.922 345.164 291.315 346.187 291.304L403.822 290.657C404.804 290.646 405.745 290.263 406.456 289.585C407.166 288.907 407.593 287.985 407.649 287.005L409.399 256.701C409.429 256.175 409.351 255.647 409.171 255.151C408.99 254.656 408.71 254.202 408.347 253.818C407.985 253.435 407.548 253.129 407.063 252.92C406.578 252.711 406.056 252.604 405.528 252.604H345.559C345.044 252.604 344.534 252.706 344.059 252.905C343.584 253.105 343.153 253.397 342.792 253.764C342.431 254.132 342.147 254.568 341.957 255.046C341.766 255.525 341.673 256.036 341.683 256.551Z" fill="#575A89"/>
<path d="M372.498 161.307C372.498 161.307 373.435 164.429 368.123 167.24C362.811 170.05 361.249 180.668 367.498 183.791C373.747 186.913 375.622 190.973 372.498 193.783C369.373 196.594 363.748 204.089 371.248 205.962C378.747 207.836 379.684 211.583 377.497 213.145C375.31 214.706 382.497 210.334 382.497 210.334C382.497 210.334 383.747 217.829 390.309 215.955C396.871 214.081 403.418 180.023 396.103 171.251C389.302 163.094 372.498 161.307 372.498 161.307Z" fill="#2F2E41"/>
<path d="M370.501 158.092C370.503 153.517 384.199 156.804 390.071 163.192C394.137 167.615 400.314 174.27 395.138 178.961C389.963 183.652 404.009 189.802 407.777 191.666C411.544 193.531 418.982 199.232 412.266 203.057C405.55 206.882 405.658 210.743 408.186 211.658C410.713 212.572 402.613 210.298 402.613 210.298C402.613 210.298 403.431 217.852 396.607 217.816C389.782 217.78 370.204 180.298 374.881 169.88C379.23 160.193 370.501 158.092 370.501 158.092Z" fill="#2F2E41"/>
<path d="M373.468 157.088C355.153 155.986 353.315 169.764 353.315 169.764C353.442 177.737 366.111 173.852 369.63 175.041C373.876 171.989 382.059 166.214 387.912 162.092C383.663 159.102 378.657 157.368 373.468 157.088Z" fill="#2F2E41"/>
<path d="M368.25 245.008C368.25 245.008 351.821 168.06 248.99 112.24" stroke="#3F3D56" stroke-width="2" stroke-miterlimit="10"/>
<path d="M253.227 110.561L253.433 111.404L249.274 112.412L250.584 116.485L249.757 116.75L248.162 111.789L253.227 110.561Z" fill="#3F3D56"/>
<path d="M29.7199 323.632C29.7199 333.378 23.9228 336.781 16.7711 336.781C16.6054 336.781 16.44 336.779 16.2749 336.776C15.9435 336.769 15.6153 336.753 15.291 336.731C8.83676 336.274 3.82227 332.696 3.82227 323.632C3.82227 314.252 15.8165 302.416 16.7174 301.54L16.719 301.539C16.7537 301.505 16.7711 301.488 16.7711 301.488C16.7711 301.488 29.7199 313.886 29.7199 323.632Z" fill="#4FBB48"/>
<path d="M16.2989 335.29L21.0348 328.677L16.287 336.016L16.2744 336.776C15.9431 336.769 15.6149 336.753 15.2906 336.731L15.8011 326.98L15.7971 326.904L15.8058 326.89L15.8539 325.969L11.0942 318.612L15.8689 325.279L15.8799 325.474L16.2657 318.107L12.1909 310.504L16.3154 316.814L16.717 301.54L16.7186 301.488V301.539L16.6515 313.583L20.7083 308.808L16.635 314.621L16.5277 321.217L20.3153 314.886L16.5119 322.187L16.4519 325.854L21.9508 317.043L16.4314 327.134L16.2989 335.29Z" fill="#3F3D56"/>
<path d="M91.4819 321.107L94.2518 319.051C94.2518 319.051 96.0853 329.286 94.0394 330.819C91.9934 332.353 84.3211 334.909 84.3211 337.976C84.3211 341.043 66.9305 345.132 66.419 340.532C65.9075 335.931 67.9535 333.375 67.9535 333.375C67.9535 333.375 76.1373 325.197 77.1603 323.663C78.1832 322.13 80.7407 319.063 80.7407 319.063L91.4819 321.107Z" fill="#2F2E41"/>
<path d="M50.563 193.826C50.563 193.826 50.6397 194.276 50.7727 195.099C50.8955 195.83 51.0642 196.862 51.2688 198.135C53.4171 211.236 59.6829 249.804 59.2583 251.077C58.7468 252.61 55.1664 258.233 59.2583 259.766C59.6522 259.915 60.0767 260.395 60.5319 261.152C61.4105 262.781 62.1349 264.489 62.6955 266.253C65.1353 273.328 67.7439 284.65 69.2528 292.491C69.9126 295.937 70.3627 298.707 70.4957 300.159C70.5419 300.494 70.5471 300.834 70.511 301.171C69.9996 303.216 73.58 310.372 75.1144 312.417C76.6489 314.461 79.2063 316.506 78.6948 318.551C78.1834 320.595 91.4821 326.218 93.0165 322.64C94.551 319.062 94.551 317.017 95.0625 315.995C95.574 314.972 96.0855 307.816 93.528 306.794C90.9706 305.771 92.505 287.881 89.9476 284.302C89.0934 283.111 87.7891 279.078 86.4234 274.227C85.8864 272.326 85.3442 270.302 84.8122 268.272C82.6538 259.956 80.7408 251.588 80.7408 251.588L81.2523 191.781L53.1204 188.203L52.3993 189.793L50.962 192.947L50.563 193.826Z" fill="#2F2E41"/>
<path d="M49.0285 291.97C49.0285 291.97 44.9366 287.88 42.8906 291.97C40.8447 296.059 38.7987 311.905 35.2183 315.483C31.6379 319.062 27.0345 336.953 32.1494 337.975C37.2643 338.997 42.8906 336.441 43.4021 333.374C43.9136 330.307 54.6548 314.461 54.6548 312.928C54.6548 311.394 47.494 305.771 47.494 305.771L49.0285 291.97Z" fill="#2F2E41"/>
<path d="M111.942 165.713C111.942 165.713 105.292 225.519 103.758 231.142C102.223 236.765 94.0394 258.234 91.482 261.812C88.9245 265.39 72.5569 294.527 70.5109 296.06C68.465 297.594 64.3731 301.683 64.3731 301.683C64.3731 301.683 56.7007 309.35 55.6778 310.884C54.6548 312.417 45.9595 307.817 45.448 304.75C44.9365 301.683 45.9595 296.571 46.471 294.527C46.9825 292.482 45.448 289.415 46.9825 287.881C48.5169 286.348 56.1893 278.68 56.1893 275.102C56.1893 271.524 69.488 250.566 74.6028 245.966C79.7177 241.365 78.6948 233.698 78.6948 233.698V202.517L50.5629 193.827C50.5629 193.827 52.0974 169.291 55.6778 169.291C59.2582 169.291 106.315 161.112 111.942 165.713Z" fill="#2F2E41"/>
<path d="M70.511 80.3464C79.833 80.3464 87.3901 72.7941 87.3901 63.4779C87.3901 54.1617 79.833 46.6094 70.511 46.6094C61.1889 46.6094 53.6318 54.1617 53.6318 63.4779C53.6318 72.7941 61.1889 80.3464 70.511 80.3464Z" fill="#FFB9B9"/>
<path d="M76.1373 76.7699C76.1373 76.7699 78.1833 84.4375 80.7407 86.4821C83.2982 88.5268 74.0914 97.2166 74.0914 97.2166L56.7008 98.239L53.6318 88.5268C53.6318 88.5268 59.2582 77.2811 57.7237 70.1248C56.1893 62.9684 76.1373 76.7699 76.1373 76.7699Z" fill="#FFB9B9"/>
<path d="M83.2983 85.459C83.2983 85.459 78.6949 85.9702 77.6719 87.5037C76.6489 89.0372 69.4881 93.6377 63.8617 92.6153C58.2353 91.593 54.6549 90.0595 53.6319 90.5706C52.6089 91.0818 50.563 101.816 50.563 101.816L56.1894 118.174L55.1664 163.156L53.6319 175.424C53.6319 175.424 50.563 171.335 62.8387 173.891C75.1144 176.447 90.9706 171.846 96.0855 171.335C101.2 170.824 109.896 169.29 110.407 166.223C110.919 163.156 108.873 151.911 108.873 151.911L100.689 117.662L95.574 99.2605L83.2983 85.459Z" fill="#4FBB48"/>
<path d="M78.46 83.1519C78.46 83.1519 82.7866 80.8585 84.3211 82.9031C85.8555 84.9478 105.292 88.0148 105.292 89.5483C105.292 91.0818 109.384 132.486 108.361 136.064C107.338 139.643 110.407 143.732 110.407 143.732L113.987 159.067C113.987 159.067 123.706 188.203 119.614 189.226C115.522 190.248 111.941 189.226 110.407 189.226C108.873 189.226 109.384 169.801 105.292 164.69C101.2 159.578 95.5738 146.799 94.5508 144.243C93.5279 141.687 80.7406 106.417 81.2521 102.327C81.7636 98.2382 78.46 83.1519 78.46 83.1519Z" fill="#2F2E41"/>
<path d="M57.2125 85.459C57.2125 85.459 53.1206 85.459 52.6091 86.4813C52.0976 87.5037 46.9827 94.1488 44.9368 95.6823C42.8908 97.2158 35.73 103.861 35.73 105.394C35.73 106.928 50.5632 118.174 50.5632 118.174C50.5632 118.174 56.701 148.332 53.6321 158.556C50.5631 168.779 45.9598 193.315 48.0057 194.849C50.0517 196.382 54.6551 196.893 54.6551 194.849C54.6551 192.804 57.724 170.824 60.2814 166.223C62.8389 161.623 70.5112 132.486 67.4423 124.308C64.3733 116.129 57.2125 85.459 57.2125 85.459Z" fill="#2F2E41"/>
<path d="M124.729 136.064C124.729 136.064 125.24 151.911 119.614 160.089C113.988 168.268 110.407 177.469 110.407 177.469C110.407 177.469 101.2 174.913 99.6658 171.846C98.1314 168.779 88.4131 171.335 88.4131 170.313C88.4131 169.29 100.177 164.179 101.2 163.156C102.223 162.134 105.804 162.134 107.85 160.089C109.896 158.045 110.407 153.444 110.407 153.444L112.453 140.154L124.729 136.064Z" fill="#FFB9B9"/>
<path d="M82.1364 53.0774C83.435 52.9595 84.7742 52.8298 85.9218 52.2113C88.4933 50.8254 89.1752 46.8787 87.2176 44.7113C86.6779 44.1599 86.0742 43.6748 85.4194 43.2663L81.5314 40.6216C79.8118 39.4519 78.0516 38.2631 76.046 37.7117C74.232 37.2129 72.3161 37.2642 70.4384 37.3808C66.7931 37.6072 63.1253 38.075 59.6967 39.3327C56.2681 40.5905 53.0698 42.6947 50.9933 45.6974C47.7014 50.4575 47.6561 56.8774 49.4692 62.3728C51.2823 67.8681 54.7264 72.6534 58.1199 77.3418L59.8808 68.7556C60.0376 67.9909 60.2404 67.1527 60.8769 66.7001C62.4587 65.5751 64.3937 67.8849 66.3351 67.8699C67.5825 67.8603 68.6298 66.8349 69.1026 65.6812C69.5753 64.5275 69.6064 63.2499 69.7158 62.008C69.9475 59.3776 70.8675 55.7176 73.36 54.2669C75.6827 52.9151 79.5257 53.3144 82.1364 53.0774Z" fill="#2F2E41"/>
<path opacity="0.1" d="M81.1895 194.239C81.1895 194.239 79.462 244.176 78.439 245.71C77.4161 247.243 78.439 194.082 78.439 194.082L81.1895 194.239Z" fill="black"/>
<path d="M101.2 89.5488H105.292C105.292 89.5488 122.683 113.062 120.637 114.596C118.591 116.129 120.637 120.219 120.637 120.219L124.729 127.886C124.729 127.886 129.844 132.487 128.309 133.509C126.775 134.531 124.729 138.621 124.729 138.621C124.729 138.621 114.499 137.087 111.43 143.221L104.796 134.852L101.2 89.5488Z" fill="#2F2E41"/>
<path d="M102.646 97.1117L88.6055 102.906L99.4105 129.056L113.452 123.261L102.646 97.1117Z" fill="white"/>
<path d="M101.001 112.449C102.552 111.808 103.332 110.135 102.744 108.711C102.155 107.288 100.421 106.652 98.8702 107.292C97.3193 107.932 96.539 109.605 97.1273 111.029C97.7156 112.453 99.4499 113.089 101.001 112.449Z" fill="#4FBB48"/>
<path d="M90.9704 130.442C90.9704 130.442 54.1432 161.112 48.0054 151.4C41.8675 141.688 54.6547 133.509 54.6547 133.509C54.6547 133.509 65.9075 134.02 78.6947 125.842L91.4819 120.219C91.4819 120.219 103.156 103.563 107.134 109.905C111.112 116.248 100.343 127.286 90.9704 130.442Z" fill="#FFB9B9"/>
<path d="M41.3564 103.35L35.73 105.394V120.729L33.6841 123.796C33.6841 123.796 34.1956 129.93 35.73 131.464C37.2645 132.997 40.3334 132.486 39.3105 136.064C38.6956 138.397 38.5222 140.824 38.799 143.221C38.799 143.221 48.0058 154.977 48.5172 153.444C49.0287 151.91 56.1896 132.997 57.2126 132.997C58.2355 132.997 46.9828 103.35 46.9828 103.35H41.3564Z" fill="#2F2E41"/>
<path d="M108.617 180.791C108.617 180.791 113.906 175.679 111.261 175.423C108.617 175.168 99.4104 170.056 97.8759 172.612C96.3414 175.168 108.617 180.791 108.617 180.791Z" fill="#2F2E41"/>
<path d="M209.203 83.2822C213.278 83.2822 216.581 81.5344 216.581 79.3784C216.581 77.2224 213.278 75.4746 209.203 75.4746C205.128 75.4746 201.824 77.2224 201.824 79.3784C201.824 81.5344 205.128 83.2822 209.203 83.2822Z" fill="#57B894"/>
<path d="M237.415 92.39C220.777 86.1101 204.139 86.1101 187.501 92.39V72.0034C203.777 67.0952 221.14 67.0952 237.415 72.0034V92.39Z" stroke="#3F3D56" stroke-width="2" stroke-miterlimit="10"/>
<path d="M230.47 88.1753C218.462 83.6429 206.454 83.6429 194.446 88.1753V73.4615C206.192 69.9191 218.724 69.9191 230.47 73.4615V88.1753Z" stroke="#3F3D56" stroke-width="2" stroke-miterlimit="10"/>
<path d="M211.807 81.5459C215.882 81.5459 219.186 79.7981 219.186 77.6421C219.186 75.4861 215.882 73.7383 211.807 73.7383C207.732 73.7383 204.429 75.4861 204.429 77.6421C204.429 79.7981 207.732 81.5459 211.807 81.5459Z" stroke="#3F3D56" stroke-width="2" stroke-miterlimit="10"/>
<path d="M214.628 107.73C218.621 106.916 221.508 104.543 221.077 102.43C220.645 100.318 217.059 99.2657 213.066 100.08C209.073 100.894 206.186 103.267 206.618 105.38C207.049 107.492 210.635 108.544 214.628 107.73Z" fill="#57B894"/>
<path d="M244.093 111.016C226.535 108.188 210.233 111.513 195.188 120.991L191.108 101.016C206.073 92.9544 223.085 89.4844 240.014 91.0408L244.093 111.016Z" stroke="#3F3D56" stroke-width="2" stroke-miterlimit="10"/>
<path d="M236.445 108.274C223.773 106.233 212.007 108.633 201.148 115.474L198.204 101.057C209.005 95.2388 221.283 92.7345 233.501 93.8577L236.445 108.274Z" stroke="#3F3D56" stroke-width="2" stroke-miterlimit="10"/>
<path d="M216.833 105.509C220.826 104.695 223.713 102.322 223.281 100.21C222.85 98.0973 219.263 97.045 215.271 97.8594C211.278 98.6738 208.391 101.046 208.822 103.159C209.254 105.271 212.84 106.324 216.833 105.509Z" stroke="#3F3D56" stroke-width="2" stroke-miterlimit="10"/>
<path d="M219.678 128.68C219.827 126.529 216.653 124.557 212.588 124.274C208.523 123.991 205.106 125.506 204.956 127.656C204.806 129.807 207.981 131.78 212.046 132.063C216.111 132.345 219.528 130.831 219.678 128.68Z" fill="#57B894"/>
<path d="M239.557 143.108C223.395 135.689 206.798 134.534 189.764 139.645L191.18 119.307C207.757 115.54 225.078 116.745 240.973 122.77L239.557 143.108Z" stroke="#3F3D56" stroke-width="2" stroke-miterlimit="10"/>
<path d="M232.922 138.42C221.258 133.066 209.278 132.232 196.984 135.921L198.006 121.243C209.971 118.524 222.472 119.393 233.944 123.742L232.922 138.42Z" stroke="#3F3D56" stroke-width="2" stroke-miterlimit="10"/>
<path d="M222.396 127.131C222.546 124.981 219.372 123.008 215.306 122.725C211.241 122.442 207.824 123.957 207.674 126.108C207.525 128.258 210.699 130.231 214.764 130.514C218.829 130.797 222.246 129.282 222.396 127.131Z" stroke="#3F3D56" stroke-width="2" stroke-miterlimit="10"/>
<path d="M180.089 92.8632C180.089 92.8632 148.189 88.5019 125.409 101.844" stroke="#3F3D56" stroke-width="2" stroke-miterlimit="10"/>
<path d="M126.176 97.3613L127.005 97.6233L125.709 101.7L129.874 102.693L129.671 103.538L124.6 102.327L126.176 97.3613Z" fill="#3F3D56"/>
</g>
<defs>
<clipPath id="clip0_46_1708">
<rect width="477" height="346" fill="white"/>
</clipPath>
</defs>
</svg>
