<svg width="71" height="71" viewBox="0 0 71 71" fill="none" xmlns="http://www.w3.org/2000/svg">
<path d="M49.7001 8.87461C49.7001 8.25336 49.8066 7.65341 50.0018 7.09961H12.4251C11.0128 7.09961 9.65839 7.66063 8.65975 8.65927C7.66112 9.6579 7.1001 11.0123 7.1001 12.4246V47.9246C7.1001 49.3369 7.66112 50.6913 8.65975 51.69C9.65839 52.6886 11.0128 53.2496 12.4251 53.2496H24.8501V60.3496H19.5251C19.0543 60.3496 18.6029 60.5366 18.27 60.8695C17.9371 61.2024 17.7501 61.6539 17.7501 62.1246C17.7501 62.5954 17.9371 63.0468 18.27 63.3797C18.6029 63.7126 19.0543 63.8996 19.5251 63.8996H51.4751C51.9459 63.8996 52.3973 63.7126 52.7302 63.3797C53.0631 63.0468 53.2501 62.5954 53.2501 62.1246C53.2501 61.6539 53.0631 61.2024 52.7302 60.8695C52.3973 60.5366 51.9459 60.3496 51.4751 60.3496H46.1501V53.2496H58.5751C59.9874 53.2496 61.3418 52.6886 62.3404 51.69C63.3391 50.6913 63.9001 49.3369 63.9001 47.9246V24.8496H55.0251C53.4915 24.8496 52.1141 24.2035 51.1414 23.1669L50.2361 25.8827C49.689 27.5224 48.6749 28.9667 47.3184 30.0382C45.9619 31.1097 44.322 31.7617 42.6001 31.9141V33.7246C42.6001 35.1369 42.0391 36.4913 41.0404 37.49C40.0418 38.4886 38.6874 39.0496 37.2751 39.0496H26.6251C25.2128 39.0496 23.8584 38.4886 22.8598 37.49C21.8611 36.4913 21.3001 35.1369 21.3001 33.7246V23.0746C21.3001 21.6623 21.8611 20.3079 22.8598 19.3093C23.8584 18.3106 25.2128 17.7496 26.6251 17.7496H37.2751C38.8087 17.7496 40.1861 18.3957 41.1588 19.4323L42.064 16.7166C42.6112 15.0768 43.6253 13.6325 44.9818 12.561C46.3383 11.4896 47.9782 10.8376 49.7001 10.6851V8.87461ZM42.6001 53.2496V60.3496H28.4001V53.2496H42.6001ZM55.0251 7.09961C54.5543 7.09961 54.1029 7.28662 53.77 7.6195C53.4371 7.95237 53.2501 8.40385 53.2501 8.87461V14.1996H50.4811C49.3639 14.2005 48.2754 14.5526 47.3694 15.2063C46.4634 15.86 45.786 16.782 45.433 17.8419L43.5018 23.6355C43.3839 23.9894 43.1576 24.2971 42.8549 24.5151C42.5522 24.733 42.1885 24.8501 41.8155 24.8496H39.0501V23.0746C39.0501 22.6038 38.8631 22.1524 38.5302 21.8195C38.1973 21.4866 37.7459 21.2996 37.2751 21.2996H26.6251C26.1543 21.2996 25.7029 21.4866 25.37 21.8195C25.0371 22.1524 24.8501 22.6038 24.8501 23.0746V33.7246C24.8501 34.1954 25.0371 34.6468 25.37 34.9797C25.7029 35.3126 26.1543 35.4996 26.6251 35.4996H37.2751C37.7459 35.4996 38.1973 35.3126 38.5302 34.9797C38.8631 34.6468 39.0501 34.1954 39.0501 33.7246V28.3996H41.8191C42.9362 28.3988 44.0248 28.0466 44.9308 27.3929C45.8367 26.7393 46.5142 25.8172 46.8672 24.7573L48.7984 18.9637C48.9163 18.6098 49.1426 18.3021 49.4453 18.0841C49.748 17.8662 50.1117 17.7491 50.4846 17.7496H53.2501V19.5246C53.2501 19.9954 53.4371 20.4468 53.77 20.7797C54.1029 21.1126 54.5543 21.2996 55.0251 21.2996H65.6751C66.1459 21.2996 66.5973 21.1126 66.9302 20.7797C67.2631 20.4468 67.4501 19.9954 67.4501 19.5246V8.87461C67.4501 8.40385 67.2631 7.95237 66.9302 7.6195C66.5973 7.28662 66.1459 7.09961 65.6751 7.09961H55.0251Z" fill="#42A8FA"/>
</svg>
