<svg width="71" height="71" viewBox="0 0 71 71" fill="none" xmlns="http://www.w3.org/2000/svg">
<path d="M34.8295 27.9906C35.6917 27.1203 35.6898 25.7173 34.8253 24.8493L29.2283 19.2292H44.8542C45.4064 19.2292 45.8542 19.6769 45.8542 20.2292V29.5833H50.2917V16.7917C50.2917 15.6871 49.3962 14.7917 48.2917 14.7917H29.2283L34.8253 9.17152C35.6898 8.3035 35.6917 6.9005 34.8295 6.0302C33.9596 5.15209 32.5412 5.1496 31.6683 6.02464L20.7083 17.0104L31.6683 27.9962C32.5412 28.8712 33.9596 28.8687 34.8295 27.9906ZM35.5 41.4167C33.7447 41.4167 32.0288 41.9372 30.5693 42.9124C29.1098 43.8876 27.9723 45.2737 27.3006 46.8954C26.6288 48.517 26.4531 50.3015 26.7955 52.0231C27.138 53.7447 27.9832 55.326 29.2244 56.5672C30.4656 57.8084 32.047 58.6537 33.7686 58.9961C35.4902 59.3386 37.2746 59.1628 38.8963 58.4911C40.518 57.8194 41.9041 56.6818 42.8793 55.2223C43.8545 53.7629 44.375 52.047 44.375 50.2917C44.375 47.9379 43.44 45.6805 41.7756 44.0161C40.1112 42.3517 37.8538 41.4167 35.5 41.4167ZM10.875 32.5417C9.77043 32.5417 8.875 33.4371 8.875 34.5417V66.0417C8.875 67.1462 9.77043 68.0417 10.875 68.0417H60.125C61.2296 68.0417 62.125 67.1462 62.125 66.0417V34.5417C62.125 33.4371 61.2296 32.5417 60.125 32.5417H10.875ZM56.2083 56.2083C54.6391 56.2083 53.1342 56.8317 52.0246 57.9413C50.915 59.0509 50.2917 60.5558 50.2917 62.125H20.7083C20.7083 60.5558 20.085 59.0509 18.9754 57.9413C17.8658 56.8317 16.3609 56.2083 14.7917 56.2083V44.375C16.3609 44.375 17.8658 43.7516 18.9754 42.642C20.085 41.5325 20.7083 40.0275 20.7083 38.4583H50.2917C50.2917 40.0275 50.915 41.5325 52.0246 42.642C53.1342 43.7516 54.6391 44.375 56.2083 44.375V56.2083Z" fill="#42A8FA"/>
</svg>
