<svg width="466" height="365" viewBox="0 0 466 365" fill="none" xmlns="http://www.w3.org/2000/svg">
<path d="M235.767 365C362.921 365 466 357.171 466 347.513C466 337.856 362.921 330.027 235.767 330.027C108.613 330.027 5.53418 337.856 5.53418 347.513C5.53418 357.171 108.613 365 235.767 365Z" fill="#3F3D56"/>
<path d="M431.337 315.028L433.495 330.412L418.39 331.811L420.548 312.93L431.337 315.028Z" fill="#FCC9A7"/>
<path d="M360.127 103.844C360.127 103.844 361.565 122.725 361.565 123.424C361.565 124.123 351.495 172.374 351.495 172.374C351.495 172.374 337.109 198.947 351.495 198.247C365.881 197.548 361.565 173.073 361.565 173.073L376.67 132.515L370.197 103.844L360.127 103.844Z" fill="#A0616A"/>
<path d="M383.864 315.028L381.706 330.412L396.811 331.811L394.653 312.93L383.864 315.028Z" fill="#FCC9A7"/>
<path d="M367.32 170.975L363.724 175.87C363.724 175.87 361.566 196.849 363.724 203.842C365.882 210.835 370.197 243.002 370.197 245.1C370.197 247.197 370.917 248.596 370.197 249.295C369.478 249.995 367.32 249.995 368.759 251.393C370.197 252.792 370.197 256.987 370.197 256.987V260.484L379.548 312.231C379.548 312.231 373.794 318.525 378.11 318.525C382.425 318.525 398.25 318.525 397.53 311.532L396.092 310.832C396.092 310.832 393.934 264.68 394.653 262.582C395.373 260.484 394.653 256.288 394.653 256.288C394.653 256.288 393.215 254.19 394.653 253.491C396.092 252.792 396.092 247.197 396.092 247.197L402.566 204.541C402.566 204.541 408.32 233.212 411.916 236.009C415.513 238.806 414.794 245.799 414.794 245.799L417.671 307.336C417.671 307.336 414.794 314.329 417.671 315.727C420.548 317.126 432.776 322.021 433.495 315.028C434.215 308.035 437.811 247.197 437.811 244.4C437.811 241.603 437.092 240.205 437.811 238.107C438.53 236.009 437.092 236.009 437.811 236.009C438.53 236.009 436.372 233.911 436.372 232.512V198.247C436.372 198.247 437.092 191.255 437.811 189.856C438.53 188.457 437.092 187.059 437.811 184.961C438.53 182.863 436.372 175.87 436.372 175.87L404.004 167.479L367.32 170.975Z" fill="#2F2E41"/>
<path d="M392.495 327.615C392.495 327.615 396.092 324.119 391.056 324.119C387.824 324.183 384.64 324.897 381.706 326.217L378.109 338.804C378.109 338.804 363.364 350.342 379.907 348.943C396.451 347.545 393.934 348.594 393.934 348.594C393.934 348.594 398.969 347.195 399.688 345.797C400.407 344.398 398.249 324.119 398.249 324.119C398.249 324.119 396.092 329.713 392.495 327.615Z" fill="#2F2E41"/>
<path d="M423.425 327.615C423.425 327.615 419.828 324.119 424.863 324.119C428.096 324.183 431.28 324.897 434.214 326.217L437.811 338.804C437.811 338.804 452.556 350.342 436.013 348.943C419.469 347.545 419.828 348.594 419.828 348.594C419.828 348.594 414.793 347.195 414.074 345.797C413.355 344.398 417.671 324.119 417.671 324.119C417.671 324.119 419.828 329.713 423.425 327.615Z" fill="#2F2E41"/>
<path d="M376.67 48.6003C386.999 48.6003 395.372 40.4602 395.372 30.4189C395.372 20.3776 386.999 12.2375 376.67 12.2375C366.342 12.2375 357.969 20.3776 357.969 30.4189C357.969 40.4602 366.342 48.6003 376.67 48.6003Z" fill="#FCC9A7"/>
<path d="M370.197 43.7053C370.197 43.7053 373.074 57.691 373.074 59.7889C373.074 61.8867 385.302 68.1803 385.302 68.1803L398.969 51.3974C398.969 51.3974 390.338 39.5096 390.338 36.7125L370.197 43.7053Z" fill="#FCC9A7"/>
<path d="M380.986 61.8868C380.986 61.8868 374.717 60.2645 372.816 57.5792C372.816 57.5792 352.934 76.5718 352.934 80.0682L368.758 107.34C368.758 107.34 368.758 117.13 370.197 117.83C371.635 118.529 370.197 117.83 370.197 120.627C370.197 123.424 365.881 141.605 367.319 144.402C368.758 147.2 370.197 145.102 368.758 149.297C367.319 153.493 363.723 175.87 363.723 175.87C363.723 175.87 376.67 171.675 395.372 178.667C414.074 185.66 436.372 175.87 436.372 175.87C436.372 175.87 430.617 163.283 432.056 159.087C433.494 154.892 428.459 147.2 428.459 147.2L424.863 82.8653C424.863 82.8653 429.898 54.1946 426.302 52.7961L419.109 49.9989L396.074 47.2466C396.074 47.2466 390.337 61.1875 380.986 61.8868Z" fill="#F4F2FB"/>
<path d="M360.127 75.1732L352.934 80.0682C352.934 80.0682 349.338 90.5574 352.934 95.4524C356.531 100.347 357.969 107.34 357.969 107.34L372.355 105.942L360.127 75.1732Z" fill="#F4F2FB"/>
<path d="M362.392 11.2043L359.148 9.94167C359.148 9.94167 365.931 2.68176 375.368 3.31307L372.714 0.472197C372.714 0.472197 379.202 -2.05297 385.1 4.57562C388.201 8.06014 391.788 12.156 394.024 16.7699H397.499L396.049 19.8738L401.124 22.9777L395.915 22.4201C396.408 25.0998 396.239 27.8551 395.422 30.4588L395.562 32.9121C395.562 32.9121 389.524 23.8302 389.524 22.5676V25.7241C389.524 25.7241 386.28 22.8832 386.28 20.9893L384.51 23.1989L383.626 19.7268L372.714 23.1989L374.483 20.3581L367.7 21.305L370.355 17.8329C370.355 17.8329 362.687 21.9363 362.392 25.4085C362.097 28.8806 358.263 33.2997 358.263 33.2997L356.494 30.1432C356.494 30.1432 353.84 15.939 362.392 11.2043Z" fill="#2F2E41"/>
<path d="M366.73 152.178H80.8965V347.381H366.73V152.178Z" fill="#F2F2F2"/>
<path d="M176.727 226.657H104.958V348.457H176.727V226.657Z" fill="#3F3D56"/>
<path d="M137.566 233.964H118.233V251.484H137.566V233.964Z" fill="#F2F2F2"/>
<path d="M163.452 233.964H144.119V251.484H163.452V233.964Z" fill="#F2F2F2"/>
<path d="M137.566 257.855H118.233V276.013H137.566V257.855Z" fill="#F2F2F2"/>
<path d="M163.452 257.855H144.119V276.013H163.452V257.855Z" fill="#F2F2F2"/>
<path d="M167.6 300.193C170.121 300.193 172.164 298.207 172.164 295.757C172.164 293.307 170.121 291.32 167.6 291.32C165.08 291.32 163.037 293.307 163.037 295.757C163.037 298.207 165.08 300.193 167.6 300.193Z" fill="#4FBB48"/>
<path d="M342.669 215.094H200.789V330.845H342.669V215.094Z" fill="#3F3D56"/>
<path d="M396.599 188.927H51.0273L74.0683 142.095L79.2248 131.609L85.9707 117.896L91.1271 107.41L97.1049 95.2622H369.373L372.903 107.41L375.952 117.896L379.939 131.609L382.988 142.095L396.599 188.927Z" fill="#3F3D56"/>
<path d="M210.745 263.089H205.767V292.934H210.745V263.089Z" fill="#4FBB48"/>
<path d="M210.745 267.525H205.767V271.155H210.745V267.525Z" fill="#F2F2F2"/>
<path d="M210.745 284.868H205.767V288.497H210.745V284.868Z" fill="#F2F2F2"/>
<path d="M225.265 263.089H213.234V292.934H225.265V263.089Z" fill="#4FBB48"/>
<path d="M225.265 267.525H213.234V271.155H225.265V267.525Z" fill="#F2F2F2"/>
<path d="M225.265 284.868H213.234V288.497H225.265V284.868Z" fill="#F2F2F2"/>
<path d="M233.147 263.089H228.169V292.934H233.147V263.089Z" fill="#4FBB48"/>
<path d="M233.147 267.525H228.169V271.155H233.147V267.525Z" fill="#F2F2F2"/>
<path d="M233.147 284.868H228.169V288.497H233.147V284.868Z" fill="#F2F2F2"/>
<path d="M240.615 263.089H235.637V292.934H240.615V263.089Z" fill="#4FBB48"/>
<path d="M240.615 267.525H235.637V271.155H240.615V267.525Z" fill="#F2F2F2"/>
<path d="M240.615 284.868H235.637V288.497H240.615V284.868Z" fill="#F2F2F2"/>
<path d="M245.412 263.194L240.754 264.901L251.582 292.828L256.241 291.121L245.412 263.194Z" fill="#4FBB48"/>
<path d="M247.022 267.345L242.363 269.053L243.68 272.449L248.339 270.742L247.022 267.345Z" fill="#F2F2F2"/>
<path d="M253.314 283.573L248.655 285.28L249.972 288.677L254.631 286.97L253.314 283.573Z" fill="#F2F2F2"/>
<path d="M338.105 263.089H326.074V292.934H338.105V263.089Z" fill="#4FBB48"/>
<path d="M338.105 267.525H326.074V271.155H338.105V267.525Z" fill="#F2F2F2"/>
<path d="M338.105 284.868H326.074V288.497H338.105V284.868Z" fill="#F2F2F2"/>
<path d="M323.171 263.089H318.192V292.934H323.171V263.089Z" fill="#4FBB48"/>
<path d="M323.171 267.525H318.192V271.155H323.171V267.525Z" fill="#F2F2F2"/>
<path d="M323.171 284.868H318.192V288.497H323.171V284.868Z" fill="#F2F2F2"/>
<path d="M315.703 263.089H310.725V292.934H315.703V263.089Z" fill="#4FBB48"/>
<path d="M315.703 267.525H310.725V271.155H315.703V267.525Z" fill="#F2F2F2"/>
<path d="M315.703 284.868H310.725V288.497H315.703V284.868Z" fill="#F2F2F2"/>
<path d="M305.928 263.194L295.1 291.121L299.758 292.828L310.586 264.901L305.928 263.194Z" fill="#4FBB48"/>
<path d="M304.318 267.345L303.001 270.742L307.659 272.449L308.976 269.053L304.318 267.345Z" fill="#F2F2F2"/>
<path d="M298.026 283.573L296.709 286.97L301.367 288.677L302.684 285.28L298.026 283.573Z" fill="#F2F2F2"/>
<path d="M342.669 292.934H200.789V295.757H342.669V292.934Z" fill="#F2F2F2"/>
<path d="M288.737 263.089H262.602V292.934H288.737V263.089Z" fill="#4FBB48"/>
<path d="M282.307 269.542H269.032V275.188H282.307V269.542Z" fill="#F2F2F2"/>
<path d="M272.974 215.094H270.484V240.906H272.974V215.094Z" fill="#F2F2F2"/>
<path d="M271.729 244.94C274.02 244.94 275.877 243.134 275.877 240.906C275.877 238.679 274.02 236.873 271.729 236.873C269.437 236.873 267.58 238.679 267.58 240.906C267.58 243.134 269.437 244.94 271.729 244.94Z" fill="#F2F2F2"/>
<path d="M375.952 117.896H85.9707L91.1271 107.41H372.903L375.952 117.896Z" fill="#4FBB48"/>
<path d="M382.988 142.095H74.0684L79.2248 131.609H379.939L382.988 142.095Z" fill="#4FBB48"/>
<path d="M413.355 81.4667C413.355 81.4667 409.189 91.8796 410.06 102.182C410.219 104.027 410.858 105.802 411.916 107.34L360.886 130.893C360.886 130.893 337.829 133.214 343.583 143.004C349.338 152.794 370.197 138.109 370.197 138.109C370.197 138.109 424.864 130.417 429.179 122.725C433.495 115.032 436.372 82.8653 436.372 82.8653L413.355 81.4667Z" fill="#FCC9A7"/>
<path d="M415.513 52.7961H426.302C426.302 52.7961 434.214 54.1946 436.372 68.1803C438.53 82.166 440.688 85.6625 438.53 85.6625C436.372 85.6625 410.478 84.9632 410.478 84.2639C410.478 83.5646 415.513 52.7961 415.513 52.7961Z" fill="#F4F2FB"/>
<path d="M55.3444 261.695C85.9103 261.695 110.689 237.605 110.689 207.89C110.689 178.174 85.9103 154.085 55.3444 154.085C24.7785 154.085 0 178.174 0 207.89C0 237.605 24.7785 261.695 55.3444 261.695Z" fill="#4FBB48"/>
<path opacity="0.1" d="M55.3442 254.162C81.6309 254.162 102.94 233.445 102.94 207.89C102.94 182.334 81.6309 161.617 55.3442 161.617C29.0576 161.617 7.74805 182.334 7.74805 207.89C7.74805 233.445 29.0576 254.162 55.3442 254.162Z" fill="black"/>
<path d="M67.6469 200.551C67.1725 196.917 63.6085 195.922 59.1349 195.865L59.0245 190.788L55.5637 191.015L55.6713 195.958C54.7627 196.017 53.8333 196.094 52.91 196.171L52.8024 191.195L49.3444 191.421L49.4534 196.497C48.7046 196.559 47.9693 196.62 47.252 196.667L47.2512 196.652L42.4792 196.962L42.5518 200.262C42.5518 200.262 45.1058 200.052 45.0643 200.097C45.5273 200.014 45.9984 200.096 46.3761 200.325C46.7537 200.554 47.0079 200.911 47.0839 201.32L47.2098 207.104C47.3321 207.096 47.4544 207.095 47.576 207.101L47.2114 207.125L47.3856 215.227C47.3791 215.372 47.3408 215.515 47.2729 215.649C47.2051 215.783 47.109 215.904 46.9903 216.008C46.8716 216.111 46.7325 216.193 46.5811 216.249C46.4297 216.305 46.2689 216.335 46.108 216.336C46.153 216.368 43.5929 216.5 43.5929 216.5L42.9859 220.236L47.4893 219.941C48.3272 219.887 49.1519 219.846 49.9605 219.798L50.0737 224.933L53.5298 224.707L53.4203 219.627C54.3687 219.583 55.2872 219.529 56.1837 219.47L56.2921 224.527L59.7519 224.3L59.6417 219.175C65.4519 218.496 69.4955 216.921 69.8935 212.01C70.2163 208.056 68.1102 206.438 64.7926 205.945C66.7782 204.9 67.9975 203.21 67.646 200.551L67.6469 200.551ZM63.044 211.847C63.1283 215.684 55.764 215.729 53.418 215.884L53.2711 209.081C55.6166 208.928 62.9555 207.845 63.0449 211.846L63.044 211.847ZM61.2254 202.354C61.3001 205.845 55.1565 205.839 53.2024 205.968L53.0686 199.798C55.0226 199.67 61.1468 198.713 61.2254 202.354Z" fill="white"/>
</svg>
