<svg width="27" height="22" viewBox="0 0 27 22" fill="none" xmlns="http://www.w3.org/2000/svg">
<path fill-rule="evenodd" clip-rule="evenodd" d="M21.876 1.21582C22.8082 1.21582 23.5719 1.9208 23.5719 2.77932V6.72774C24.4758 6.72774 25.1636 6.64457 25.6522 7.15252C26.4403 7.97138 26.0032 8.78767 25.116 9.75622L15.594 20.1531C14.937 20.5562 14.2196 20.7673 13.4996 20.7839C12.7796 20.7673 12.0622 20.5562 11.4052 20.1531L1.88319 9.75622C0.996043 8.78767 0.5589 7.97138 1.34704 7.15252C1.83561 6.64457 2.52347 6.72774 3.42733 6.72774V2.77932C3.42733 1.9208 4.19104 1.21582 5.12319 1.21582H21.876Z" fill="#FFD500"/>
<path fill-rule="evenodd" clip-rule="evenodd" d="M4.50732 3.15496H5.92032L5.92675 5.4324C6.18775 5.426 6.32275 5.27886 6.33175 4.99226L6.35875 3.94054C6.36775 3.55287 6.44232 3.2893 6.58504 3.15496H7.88618C7.76147 3.28546 7.69975 3.55671 7.70232 3.96741L7.70875 4.89246C7.71261 5.45159 7.39632 5.77145 6.75861 5.84822C7.39632 5.92627 7.71261 6.24997 7.70875 6.81805L7.70232 7.67657C7.69975 8.06169 7.75375 8.34189 7.86432 8.51718L8.57532 3.15496H10.6145L11.4206 8.54916H9.98061L9.90475 7.58061H9.39561L9.31975 8.54916H6.58504C6.43332 8.41482 6.35875 8.15125 6.35875 7.7623V6.71186C6.35875 6.57751 6.3189 6.47004 6.2379 6.38943C6.1569 6.30883 6.05275 6.26661 5.92675 6.26405L5.92032 8.54916H4.50732V3.15496ZM13.5909 15.544V16.7134H9.81347L9.81604 15.7346C10.9359 13.9127 11.8616 12.8174 12.0738 12.3837C12.2859 11.9513 12.3913 11.6135 12.3913 11.3717C12.3913 10.485 11.3538 10.4556 11.3538 11.5405V12.1905H10.1105V11.941C10.1105 10.8049 10.2198 9.8491 11.6713 9.73011C12.3913 9.67125 12.8722 9.899 13.2232 10.2355C13.5729 10.5733 13.7478 10.9993 13.7478 11.515C13.7478 11.9077 13.65 12.3223 13.452 12.7599C13.2553 13.1974 12.6729 14.1238 11.7086 15.544H13.5909ZM15.1183 14.3387L15.8808 11.4241V14.3387H15.1183ZM17.2513 14.3298V9.86061H15.3228L13.8352 14.3387V15.5082H15.8808V16.7134H17.2513V15.5273H17.8158V14.3298H17.2513ZM21.6845 3.15496L22.4919 8.54916H21.0506L20.9748 7.58061H20.4656L20.3898 8.54916H18.9305L19.6453 3.15496H21.6845ZM20.9362 6.62613C20.8693 6.01455 20.7986 5.25711 20.7227 4.35381C20.5839 5.39017 20.4965 6.14762 20.4579 6.62613H20.9362ZM18.7479 5.50788H17.3362V4.57132C17.3362 4.29751 17.3208 4.12863 17.2912 4.06081C17.2616 3.993 17.196 3.95974 17.0945 3.95974C16.98 3.95974 16.9068 4.00068 16.8759 4.08256C16.845 4.16445 16.8283 4.3423 16.8283 4.61482V7.11873C16.8283 7.38102 16.845 7.55118 16.8759 7.63179C16.9068 7.7124 16.9762 7.75206 17.0842 7.75206C17.187 7.75206 17.2565 7.7124 17.2886 7.63051C17.3208 7.55118 17.3362 7.3631 17.3362 7.06627V6.38687H18.7479V6.59799C18.7479 7.15711 18.708 7.55374 18.6296 7.7866C18.5499 8.02075 18.375 8.22546 18.1038 8.40203C17.8325 8.57859 17.4982 8.6656 17.1009 8.6656C16.6882 8.6656 16.3475 8.59139 16.08 8.44297C15.8126 8.29327 15.6339 8.08856 15.5478 7.82371C15.4603 7.56014 15.4166 7.16479 15.4166 6.63637V5.06135C15.4166 4.6724 15.4308 4.38068 15.4565 4.1862C15.4848 3.99172 15.5632 3.80492 15.6969 3.62452C15.8293 3.44539 16.0132 3.30337 16.2485 3.19974C16.4838 3.0961 16.755 3.04492 17.061 3.04492C17.475 3.04492 17.8183 3.12425 18.0883 3.28546C18.3583 3.44411 18.5358 3.64371 18.6219 3.88169C18.7055 4.12095 18.7479 4.49071 18.7479 4.99482V5.50788ZM14.9538 5.50788H13.5408V4.57132C13.5408 4.29751 13.5266 4.12863 13.497 4.06081C13.4675 3.993 13.4006 3.95974 13.299 3.95974C13.1846 3.95974 13.1113 4.00068 13.0805 4.08256C13.0496 4.16445 13.0342 4.3423 13.0342 4.61482V7.11873C13.0342 7.38102 13.0496 7.55118 13.0805 7.63179C13.1113 7.7124 13.182 7.75206 13.2888 7.75206C13.3929 7.75206 13.461 7.7124 13.4932 7.63051C13.5253 7.55118 13.5408 7.3631 13.5408 7.06627V6.38687H14.9538V6.59799C14.9538 7.15711 14.9139 7.55374 14.8342 7.7866C14.7558 8.02075 14.5796 8.22546 14.3096 8.40203C14.037 8.57859 13.704 8.6656 13.3055 8.6656C12.894 8.6656 12.5533 8.59139 12.2846 8.44297C12.0172 8.29327 11.8398 8.08856 11.7523 7.82371C11.6662 7.56014 11.6225 7.16479 11.6225 6.63637V5.06135C11.6225 4.6724 11.6353 4.38068 11.6623 4.1862C11.6893 3.99172 11.769 3.80492 11.9015 3.62452C12.0352 3.44539 12.219 3.30337 12.4543 3.19974C12.6896 3.0961 12.9596 3.04492 13.2656 3.04492C13.6809 3.04492 14.0229 3.12425 14.2942 3.28546C14.5642 3.44411 14.7403 3.64371 14.8265 3.88169C14.9113 4.12095 14.9538 4.49071 14.9538 4.99482V5.50788ZM9.86618 6.62613C9.79932 6.01455 9.72861 5.25711 9.65275 4.35381C9.5139 5.39017 9.42518 6.14762 9.3879 6.62613H9.86618Z" fill="#2B2A29"/>
<path fill-rule="evenodd" clip-rule="evenodd" d="M5.12341 1.21618H21.8763C22.8084 1.21618 23.5721 1.92117 23.5721 2.77969V6.7281C24.476 6.7281 25.1638 6.64494 25.6524 7.15288C26.4405 7.97174 26.0034 8.78803 25.1163 9.75659L15.5943 20.1535C14.9373 20.5565 14.2198 20.7676 13.4998 20.7843C12.7798 20.7676 12.0624 20.5565 11.4054 20.1535L1.88341 9.75659C0.996264 8.78803 0.559121 7.97174 1.34726 7.15288C1.83584 6.64494 2.52369 6.7281 3.42755 6.7281V2.77969C3.42755 1.92117 4.19126 1.21618 5.12341 1.21618ZM15.8848 20.6205C15.9311 20.5923 15.9671 20.5629 16.0031 20.5232L25.5251 10.1263C26.0561 9.54675 26.6578 8.79699 26.6141 7.96534C26.5897 7.49962 26.3711 7.10426 26.0523 6.77288C25.5174 6.21632 24.8295 6.16898 24.125 6.17282V2.77969C24.125 1.56931 23.0617 0.666016 21.8763 0.666016H5.12341C3.93798 0.666016 2.87469 1.56931 2.87469 2.77969V6.17282C2.17012 6.16898 1.48226 6.21632 0.947407 6.77288C0.62855 7.10426 0.409979 7.49962 0.38555 7.96534C0.341836 8.79699 0.94355 9.54675 1.47455 10.1263L10.9965 20.5232C11.0325 20.5629 11.0685 20.5923 11.1148 20.6205C11.8323 21.0606 12.6423 21.314 13.4857 21.3344H13.514C14.3574 21.314 15.1674 21.0606 15.8848 20.6205Z" fill="#2B2A29"/>
</svg>
