<svg width="60" height="60" viewBox="0 0 60 60" fill="none" xmlns="http://www.w3.org/2000/svg">
<rect width="60" height="60" rx="5" fill="#42A8FA"/>
<path d="M36.5 11H22.5C21.8681 11 21.2847 11.1566 20.75 11.4697C20.2153 11.7829 19.7899 12.2044 19.474 12.7344C19.158 13.2643 19 13.8424 19 14.4688V44.5312C19 45.4948 19.3403 46.3138 20.0208 46.9883C20.7014 47.6628 21.5278 48 22.5 48H36.5C37.4722 48 38.2986 47.6628 38.9792 46.9883C39.6597 46.3138 40 45.4948 40 44.5312V14.4688C40 13.8424 39.842 13.2643 39.526 12.7344C39.2101 12.2044 38.7847 11.7829 38.25 11.4697C37.7153 11.1566 37.1319 11 36.5 11ZM37.6667 44.5312C37.6667 44.8444 37.5512 45.1154 37.3203 45.3442C37.0894 45.5731 36.816 45.6875 36.5 45.6875H22.5C22.184 45.6875 21.9106 45.5731 21.6797 45.3442C21.4488 45.1154 21.3333 44.8444 21.3333 44.5312V14.4688C21.3333 14.1556 21.4488 13.8846 21.6797 13.6558C21.9106 13.4269 22.184 13.3125 22.5 13.3125H36.5C36.816 13.3125 37.0894 13.4269 37.3203 13.6558C37.5512 13.8846 37.6667 14.1556 37.6667 14.4688V44.5312ZM29.5182 39.9062C28.8741 39.9062 28.3212 40.1351 27.8594 40.5928C27.3976 41.0505 27.1667 41.5924 27.1667 42.2188C27.1667 42.6283 27.27 43.0137 27.4766 43.375C27.6832 43.7363 27.9688 44.0194 28.3333 44.2241C28.6979 44.4289 29.0868 44.5312 29.5 44.5312C29.9132 44.5312 30.3021 44.4289 30.6667 44.2241C31.0312 44.0194 31.3168 43.7363 31.5234 43.375C31.73 43.0137 31.8333 42.6283 31.8333 42.2188C31.8333 41.5924 31.6085 41.0505 31.1589 40.5928C30.7092 40.1351 30.1623 39.9062 29.5182 39.9062ZM31.8333 14.4688H27.1667C26.8507 14.4688 26.5773 14.5832 26.3464 14.812C26.1155 15.0409 26 15.3118 26 15.625C26 15.9382 26.1155 16.2091 26.3464 16.438C26.5773 16.6668 26.8507 16.7812 27.1667 16.7812H31.8333C32.1493 16.7812 32.4227 16.6668 32.6536 16.438C32.8845 16.2091 33 15.9382 33 15.625C33 15.3118 32.8845 15.0409 32.6536 14.812C32.4227 14.5832 32.1493 14.4688 31.8333 14.4688Z" fill="white"/>
</svg>
