<svg width="17" height="17" viewBox="0 0 17 17" fill="none" xmlns="http://www.w3.org/2000/svg">
<path d="M8.5 0.708496C10.1908 0.708496 11.8123 1.38015 13.0078 2.57569C14.2033 3.77123 14.875 5.39274 14.875 7.0835C14.875 9.72275 12.8633 12.4881 8.925 15.4418C8.80239 15.5338 8.65326 15.5835 8.5 15.5835C8.34674 15.5835 8.19761 15.5338 8.075 15.4418C4.13667 12.4881 2.125 9.72275 2.125 7.0835C2.125 5.39274 2.79665 3.77123 3.99219 2.57569C5.18774 1.38015 6.80924 0.708496 8.5 0.708496ZM8.5 4.9585C7.93641 4.9585 7.39591 5.18238 6.9974 5.58089C6.59888 5.97941 6.375 6.51991 6.375 7.0835C6.375 7.64708 6.59888 8.18758 6.9974 8.5861C7.39591 8.98461 7.93641 9.2085 8.5 9.2085C9.06358 9.2085 9.60409 8.98461 10.0026 8.5861C10.4011 8.18758 10.625 7.64708 10.625 7.0835C10.625 6.51991 10.4011 5.97941 10.0026 5.58089C9.60409 5.18238 9.06358 4.9585 8.5 4.9585Z" fill="#42A8FA"/>
</svg>
