<svg width="84" height="61" viewBox="0 0 84 61" fill="none" xmlns="http://www.w3.org/2000/svg">
<path d="M8.6775 47.8975C8.6775 48.1275 8.6125 48.3375 8.4825 48.5275L2.9175 56.3875H8.55V58H0.300003V57.205C0.300003 57.105 0.317503 57.01 0.352503 56.92C0.387503 56.825 0.432503 56.7375 0.487503 56.6575L6.0675 48.76H0.652503V47.155H8.6775V47.8975ZM16.0195 53.905L14.6995 50.2975C14.6345 50.1375 14.567 49.9475 14.497 49.7275C14.427 49.5075 14.357 49.27 14.287 49.015C14.222 49.27 14.1545 49.51 14.0845 49.735C14.0145 49.955 13.947 50.1475 13.882 50.3125L12.5695 53.905H16.0195ZM19.582 58H18.022C17.847 58 17.7045 57.9575 17.5945 57.8725C17.4845 57.7825 17.402 57.6725 17.347 57.5425L16.537 55.33H12.0445L11.2345 57.5425C11.1945 57.6575 11.117 57.7625 11.002 57.8575C10.887 57.9525 10.7445 58 10.5745 58H8.99953L13.267 47.155H15.322L19.582 58ZM22.7296 58H20.7046V47.155H22.7296V58ZM36.9177 47.155V58H35.1402V50.995C35.1402 50.715 35.1552 50.4125 35.1852 50.0875L31.9077 56.245C31.7527 56.54 31.5152 56.6875 31.1952 56.6875H30.9102C30.5902 56.6875 30.3527 56.54 30.1977 56.245L26.8827 50.065C26.8977 50.23 26.9102 50.3925 26.9202 50.5525C26.9302 50.7125 26.9352 50.86 26.9352 50.995V58H25.1577V47.155H26.6802C26.7702 47.155 26.8477 47.1575 26.9127 47.1625C26.9777 47.1675 27.0352 47.18 27.0852 47.2C27.1402 47.22 27.1877 47.2525 27.2277 47.2975C27.2727 47.3425 27.3152 47.4025 27.3552 47.4775L30.6027 53.5C30.6877 53.66 30.7652 53.825 30.8352 53.995C30.9102 54.165 30.9827 54.34 31.0527 54.52C31.1227 54.335 31.1952 54.1575 31.2702 53.9875C31.3452 53.8125 31.4252 53.645 31.5102 53.485L34.7127 47.4775C34.7527 47.4025 34.7952 47.3425 34.8402 47.2975C34.8852 47.2525 34.9327 47.22 34.9827 47.2C35.0377 47.18 35.0977 47.1675 35.1627 47.1625C35.2277 47.1575 35.3052 47.155 35.3952 47.155H36.9177ZM41.3624 48.76V51.7675H45.1574V53.32H41.3624V56.3875H46.1774V58H39.3374V47.155H46.1774V48.76H41.3624ZM59.7253 47.155V58H57.9478V50.995C57.9478 50.715 57.9628 50.4125 57.9928 50.0875L54.7153 56.245C54.5603 56.54 54.3228 56.6875 54.0028 56.6875H53.7178C53.3978 56.6875 53.1603 56.54 53.0053 56.245L49.6903 50.065C49.7053 50.23 49.7178 50.3925 49.7278 50.5525C49.7378 50.7125 49.7428 50.86 49.7428 50.995V58H47.9653V47.155H49.4878C49.5778 47.155 49.6553 47.1575 49.7203 47.1625C49.7853 47.1675 49.8428 47.18 49.8928 47.2C49.9478 47.22 49.9953 47.2525 50.0353 47.2975C50.0803 47.3425 50.1228 47.4025 50.1628 47.4775L53.4103 53.5C53.4953 53.66 53.5728 53.825 53.6428 53.995C53.7178 54.165 53.7903 54.34 53.8603 54.52C53.9303 54.335 54.0028 54.1575 54.0778 53.9875C54.1528 53.8125 54.2328 53.645 54.3178 53.485L57.5203 47.4775C57.5603 47.4025 57.6028 47.3425 57.6478 47.2975C57.6928 47.2525 57.7403 47.22 57.7903 47.2C57.8453 47.18 57.9053 47.1675 57.9703 47.1625C58.0353 47.1575 58.1128 47.155 58.2028 47.155H59.7253ZM61.5825 56.98C61.5825 56.825 61.61 56.6775 61.665 56.5375C61.725 56.3975 61.805 56.2775 61.905 56.1775C62.005 56.0775 62.125 55.9975 62.265 55.9375C62.405 55.8775 62.555 55.8475 62.715 55.8475C62.875 55.8475 63.0225 55.8775 63.1575 55.9375C63.2975 55.9975 63.4175 56.0775 63.5175 56.1775C63.6225 56.2775 63.705 56.3975 63.765 56.5375C63.825 56.6775 63.855 56.825 63.855 56.98C63.855 57.14 63.825 57.29 63.765 57.43C63.705 57.565 63.6225 57.6825 63.5175 57.7825C63.4175 57.8825 63.2975 57.96 63.1575 58.015C63.0225 58.075 62.875 58.105 62.715 58.105C62.555 58.105 62.405 58.075 62.265 58.015C62.125 57.96 62.005 57.8825 61.905 57.7825C61.805 57.6825 61.725 57.565 61.665 57.43C61.61 57.29 61.5825 57.14 61.5825 56.98ZM67.7221 51.7H68.1946C68.3846 51.7 68.5421 51.675 68.6671 51.625C68.7921 51.57 68.8996 51.485 68.9896 51.37L71.9821 47.5825C72.1071 47.4225 72.2371 47.3125 72.3721 47.2525C72.5121 47.1875 72.6871 47.155 72.8971 47.155H74.6371L70.9846 51.6625C70.7696 51.9375 70.5471 52.1325 70.3171 52.2475C70.4821 52.3075 70.6296 52.3925 70.7596 52.5025C70.8946 52.6075 71.0221 52.7475 71.1421 52.9225L74.9071 58H73.1296C72.8896 58 72.7096 57.9675 72.5896 57.9025C72.4746 57.8325 72.3771 57.7325 72.2971 57.6025L69.2296 53.5975C69.1346 53.4625 69.0246 53.3675 68.8996 53.3125C68.7746 53.2575 68.5946 53.23 68.3596 53.23H67.7221V58H65.7046V47.155H67.7221V51.7ZM83.4578 47.8975C83.4578 48.1275 83.3928 48.3375 83.2628 48.5275L77.6978 56.3875H83.3303V58H75.0803V57.205C75.0803 57.105 75.0978 57.01 75.1328 56.92C75.1678 56.825 75.2128 56.7375 75.2678 56.6575L80.8478 48.76H75.4328V47.155H83.4578V47.8975Z" fill="black"/>
<path d="M42 39.5C52.7696 39.5 61.5 30.7696 61.5 20C61.5 9.23045 52.7696 0.5 42 0.5C31.2304 0.5 22.5 9.23045 22.5 20C22.5 30.7696 31.2304 39.5 42 39.5Z" stroke="black"/>
<path d="M32.8228 9.03223V30.9677" stroke="black"/>
<path d="M41.855 9.03223V30.9677" stroke="black"/>
<path d="M50.8872 9.03223V30.9677" stroke="black"/>
</svg>
