<svg width="30" height="30" viewBox="0 0 30 30" fill="none" xmlns="http://www.w3.org/2000/svg">
<path fill-rule="evenodd" clip-rule="evenodd" d="M4.6875 10.3125C4.6875 9.79473 5.10723 9.375 5.625 9.375H24.375C24.8928 9.375 25.3125 9.79473 25.3125 10.3125C25.3125 10.8303 24.8928 11.25 24.375 11.25H5.625C5.10723 11.25 4.6875 10.8303 4.6875 10.3125ZM4.6875 15C4.6875 14.4822 5.10723 14.0625 5.625 14.0625H24.375C24.8928 14.0625 25.3125 14.4822 25.3125 15C25.3125 15.5178 24.8928 15.9375 24.375 15.9375H5.625C5.10723 15.9375 4.6875 15.5178 4.6875 15ZM4.6875 19.6875C4.6875 19.1697 5.10723 18.75 5.625 18.75H24.375C24.8928 18.75 25.3125 19.1697 25.3125 19.6875C25.3125 20.2053 24.8928 20.625 24.375 20.625H5.625C5.10723 20.625 4.6875 20.2053 4.6875 19.6875Z" fill="#42A8FA"/>
</svg>
