<svg width="164" height="164" viewBox="0 0 164 164" fill="none" xmlns="http://www.w3.org/2000/svg">
<rect x="1" y="1" width="162" height="162" rx="81" fill="#26A06A" fill-opacity="0.1" stroke="#26A06A" stroke-width="2"/>
<rect x="32.5" y="32.5" width="99" height="99" rx="49.5" fill="#26A06A" stroke="#26A06A"/>
<path d="M99.2261 68.9935L99.2284 68.9953C99.8249 69.4697 100.002 69.7804 100.025 70.0148C100.049 70.2498 99.9368 70.5863 99.457 71.1632C99.4568 71.1635 99.4565 71.1638 99.4562 71.1642L78.379 96.2231L78.3789 96.2231L78.3754 96.2274C77.9285 96.7709 77.6438 96.9322 77.426 96.9528C77.2078 96.9733 76.8801 96.8689 76.3033 96.3841L76.3003 96.3817L64.7421 86.8212C64.7418 86.8209 64.7415 86.8207 64.7412 86.8204C64.2033 86.371 64.0314 86.0797 64.0042 85.8514C63.9777 85.6286 64.071 85.3037 64.5221 84.7359L64.5221 84.736L64.5271 84.7295L66.3751 82.3235C66.8142 81.7755 67.1055 81.6186 67.3214 81.5992C67.541 81.5794 67.86 81.685 68.399 82.1378L68.4011 82.1395L76.5121 88.8785L76.9014 89.202L77.2201 88.8087L94.6491 67.2997L94.6492 67.2995C95.1403 66.693 95.4517 66.5232 95.6823 66.5024C95.9184 66.4811 96.2491 66.5981 96.8284 67.0637L99.2261 68.9935Z" fill="white" stroke="#26A06A"/>
</svg>
