<svg width="68" height="68" viewBox="0 0 68 68" fill="none" xmlns="http://www.w3.org/2000/svg">
<path fill-rule="evenodd" clip-rule="evenodd" d="M4.5332 6.8C4.5332 4.99653 5.24963 3.26692 6.52488 1.99167C7.80012 0.716426 9.52973 0 11.3332 0C11.3332 0 34.0088 0 48.5383 0C54.3681 5.82985 57.6367 9.09842 63.4665 14.9283C63.4665 32.9985 63.4665 61.2 63.4665 61.2C63.4665 63.0035 62.7501 64.7331 61.4749 66.0083C60.1996 67.2836 58.47 68 56.6665 68H11.3332C9.52973 68 7.80012 67.2836 6.52488 66.0083C5.24963 64.7331 4.5332 63.0035 4.5332 61.2V6.8ZM31.842 46.3851L47.8132 28.1294C48.6368 27.1879 48.5413 25.7571 47.6 24.9334C46.6585 24.1097 45.2276 24.2051 44.4039 25.1466L31.6244 39.7528L25.8759 34.0007C24.9898 33.1141 23.5527 33.1139 22.6663 34.0002C21.7801 34.8864 21.7801 36.3232 22.6663 37.2094L31.842 46.3851Z" fill="#42A8FA"/>
</svg>
