<svg width="71" height="71" viewBox="0 0 71 71" fill="none" xmlns="http://www.w3.org/2000/svg">
<path fill-rule="evenodd" clip-rule="evenodd" d="M51.7707 59.167C53.7322 59.167 55.6133 58.3878 57.0003 57.0008C58.3873 55.6138 59.1665 53.7327 59.1665 51.7712C59.1665 49.8097 58.3873 47.9285 57.0003 46.5415C55.6133 45.1545 53.7322 44.3753 51.7707 44.3753C49.8092 44.3753 47.928 45.1545 46.541 46.5415C45.154 47.9285 44.3748 49.8097 44.3748 51.7712C44.3748 53.7327 45.154 55.6138 46.541 57.0008C47.928 58.3878 49.8092 59.167 51.7707 59.167ZM51.7707 62.1253C54.5168 62.1253 57.1504 61.0344 59.0922 59.0927C61.034 57.1509 62.1248 54.5173 62.1248 51.7712C62.1248 49.0251 61.034 46.3914 59.0922 44.4497C57.1504 42.5079 54.5168 41.417 51.7707 41.417C49.0246 41.417 46.391 42.5079 44.4492 44.4497C42.5074 46.3914 41.4165 49.0251 41.4165 51.7712C41.4165 54.5173 42.5074 57.1509 44.4492 59.0927C46.391 61.0344 49.0246 62.1253 51.7707 62.1253Z" fill="#42A8FA"/>
<path fill-rule="evenodd" clip-rule="evenodd" d="M51.7707 46.5938C52.163 46.5938 52.5392 46.7496 52.8166 47.027C53.094 47.3044 53.2498 47.6806 53.2498 48.0729V51.1585L54.2956 52.2042C54.5651 52.4832 54.7141 52.8568 54.7108 53.2447C54.7074 53.6325 54.5518 54.0035 54.2776 54.2778C54.0033 54.552 53.6324 54.7076 53.2445 54.7109C52.8567 54.7143 52.483 54.5652 52.2041 54.2958L50.2915 52.3832V48.0729C50.2915 47.6806 50.4473 47.3044 50.7247 47.027C51.0021 46.7496 51.3784 46.5938 51.7707 46.5938Z" fill="#42A8FA"/>
<path fill-rule="evenodd" clip-rule="evenodd" d="M20.7082 34.0208H17.7498V36.9792H20.7082V34.0208ZM17.7498 31.0625C16.9652 31.0625 16.2128 31.3742 15.658 31.929C15.1032 32.4838 14.7915 33.2362 14.7915 34.0208V36.9792C14.7915 37.7638 15.1032 38.5162 15.658 39.071C16.2128 39.6258 16.9652 39.9375 17.7498 39.9375H20.7082C21.4928 39.9375 22.2452 39.6258 22.8 39.071C23.3548 38.5162 23.6665 37.7638 23.6665 36.9792V34.0208C23.6665 33.2362 23.3548 32.4838 22.8 31.929C22.2452 31.3742 21.4928 31.0625 20.7082 31.0625H17.7498Z" fill="#42A8FA"/>
<path fill-rule="evenodd" clip-rule="evenodd" d="M32.5417 34.0208H29.5833V36.9792H32.5417V34.0208ZM29.5833 31.0625C28.7987 31.0625 28.0463 31.3742 27.4915 31.929C26.9367 32.4838 26.625 33.2362 26.625 34.0208V36.9792C26.625 37.7638 26.9367 38.5162 27.4915 39.071C28.0463 39.6258 28.7987 39.9375 29.5833 39.9375H32.5417C33.3263 39.9375 34.0787 39.6258 34.6335 39.071C35.1883 38.5162 35.5 37.7638 35.5 36.9792V34.0208C35.5 33.2362 35.1883 32.4838 34.6335 31.929C34.0787 31.3742 33.3263 31.0625 32.5417 31.0625H29.5833Z" fill="#42A8FA"/>
<path fill-rule="evenodd" clip-rule="evenodd" d="M44.3752 34.0208H41.4168V36.9792H44.3752V34.0208ZM41.4168 31.0625C40.6322 31.0625 39.8798 31.3742 39.325 31.929C38.7702 32.4838 38.4585 33.2362 38.4585 34.0208V36.9792C38.4585 37.7638 38.7702 38.5162 39.325 39.071C39.8798 39.6258 40.6322 39.9375 41.4168 39.9375H44.3752C45.1598 39.9375 45.9122 39.6258 46.467 39.071C47.0218 38.5162 47.3335 37.7638 47.3335 36.9792V34.0208C47.3335 33.2362 47.0218 32.4838 46.467 31.929C45.9122 31.3742 45.1598 31.0625 44.3752 31.0625H41.4168Z" fill="#42A8FA"/>
<path fill-rule="evenodd" clip-rule="evenodd" d="M20.7082 45.8538H17.7498V48.8122H20.7082V45.8538ZM17.7498 42.8955C16.9652 42.8955 16.2128 43.2072 15.658 43.762C15.1032 44.3168 14.7915 45.0692 14.7915 45.8538V48.8122C14.7915 49.5968 15.1032 50.3492 15.658 50.904C16.2128 51.4588 16.9652 51.7705 17.7498 51.7705H20.7082C21.4928 51.7705 22.2452 51.4588 22.8 50.904C23.3548 50.3492 23.6665 49.5968 23.6665 48.8122V45.8538C23.6665 45.0692 23.3548 44.3168 22.8 43.762C22.2452 43.2072 21.4928 42.8955 20.7082 42.8955H17.7498Z" fill="#42A8FA"/>
<path fill-rule="evenodd" clip-rule="evenodd" d="M32.5417 45.8538H29.5833V48.8122H32.5417V45.8538ZM29.5833 42.8955C28.7987 42.8955 28.0463 43.2072 27.4915 43.762C26.9367 44.3168 26.625 45.0692 26.625 45.8538V48.8122C26.625 49.5968 26.9367 50.3492 27.4915 50.904C28.0463 51.4588 28.7987 51.7705 29.5833 51.7705H32.5417C33.3263 51.7705 34.0787 51.4588 34.6335 50.904C35.1883 50.3492 35.5 49.5968 35.5 48.8122V45.8538C35.5 45.0692 35.1883 44.3168 34.6335 43.762C34.0787 43.2072 33.3263 42.8955 32.5417 42.8955H29.5833Z" fill="#42A8FA"/>
<path fill-rule="evenodd" clip-rule="evenodd" d="M11.8333 17.75C11.8333 17.3577 11.9892 16.9815 12.2666 16.7041C12.544 16.4267 12.9202 16.2708 13.3125 16.2708H20.7083V13.3125H13.3125C12.1356 13.3125 11.0069 13.78 10.1747 14.6122C9.34252 15.4444 8.875 16.5731 8.875 17.75V53.25C8.875 54.4269 9.34252 55.5556 10.1747 56.3878C11.0069 57.22 12.1356 57.6875 13.3125 57.6875H43.273C42.6422 56.784 42.1603 55.7852 41.8456 54.7292H13.3125C12.9202 54.7292 12.544 54.5733 12.2666 54.2959C11.9892 54.0185 11.8333 53.6423 11.8333 53.25V17.75ZM50.2917 41.5202C51.2728 41.3799 52.2689 41.3799 53.25 41.5202V17.75C53.25 16.5731 52.7825 15.4444 51.9503 14.6122C51.1181 13.78 49.9894 13.3125 48.8125 13.3125H44.375V16.2708H48.8125C49.2048 16.2708 49.581 16.4267 49.8584 16.7041C50.1358 16.9815 50.2917 17.3577 50.2917 17.75V41.5202ZM23.6667 16.2708H39.2911V13.3125H23.6667V16.2708Z" fill="#42A8FA"/>
<path fill-rule="evenodd" clip-rule="evenodd" d="M41.4165 13.3125H23.6665V17.75C23.6665 18.1423 23.5107 18.5185 23.2333 18.7959C22.9559 19.0733 22.5796 19.2292 22.1873 19.2292C21.795 19.2292 21.4188 19.0733 21.1414 18.7959C20.864 18.5185 20.7082 18.1423 20.7082 17.75V13.3125H13.3123C12.5277 13.3125 11.7753 13.6242 11.2205 14.179C10.6657 14.7338 10.354 15.4862 10.354 16.2708V23.6667C10.354 24.4513 10.6657 25.2037 11.2205 25.7585C11.7753 26.3133 12.5277 26.625 13.3123 26.625H48.8123C49.5969 26.625 50.3494 26.3133 50.9042 25.7585C51.459 25.2037 51.7707 24.4513 51.7707 23.6667V16.2708C51.7707 15.4862 51.459 14.7338 50.9042 14.179C50.3494 13.6242 49.5969 13.3125 48.8123 13.3125H44.3748V17.75C44.3748 18.1423 44.219 18.5185 43.9416 18.7959C43.6642 19.0733 43.288 19.2292 42.8957 19.2292C42.5034 19.2292 42.1271 19.0733 41.8497 18.7959C41.5723 18.5185 41.4165 18.1423 41.4165 17.75V13.3125Z" fill="#42A8FA"/>
<path fill-rule="evenodd" clip-rule="evenodd" d="M53.2502 26.6253H11.8335V23.667H53.2502V26.6253Z" fill="#42A8FA"/>
<path d="M17.75 10.3542C17.75 9.96187 17.9058 9.58564 18.1832 9.30824C18.4606 9.03084 18.8369 8.875 19.2292 8.875C19.6215 8.875 19.9977 9.03084 20.2751 9.30824C20.5525 9.58564 20.7083 9.96187 20.7083 10.3542V16.2708C20.7083 16.6631 20.5525 17.0394 20.2751 17.3168C19.9977 17.5942 19.6215 17.75 19.2292 17.75C18.8369 17.75 18.4606 17.5942 18.1832 17.3168C17.9058 17.0394 17.75 16.6631 17.75 16.2708V10.3542Z" fill="#42A8FA"/>
<path d="M38.4585 10.3542C38.4585 9.96187 38.6143 9.58564 38.8917 9.30824C39.1691 9.03084 39.5454 8.875 39.9377 8.875C40.33 8.875 40.7062 9.03084 40.9836 9.30824C41.261 9.58564 41.4168 9.96187 41.4168 10.3542V16.2708C41.4168 16.6631 41.261 17.0394 40.9836 17.3168C40.7062 17.5942 40.33 17.75 39.9377 17.75C39.5454 17.75 39.1691 17.5942 38.8917 17.3168C38.6143 17.0394 38.4585 16.6631 38.4585 16.2708V10.3542Z" fill="#42A8FA"/>
</svg>
